<?xml version="1.0" encoding="UTF-8"?>
<!DOCTYPE svg PUBLIC "-//W3C//DTD SVG 1.1//EN" "http://www.w3.org/Graphics/SVG/1.1/DTD/svg11.dtd">
<svg xmlns="http://www.w3.org/2000/svg" version="1.1" width="251px" height="241px" style="shape-rendering:geometricPrecision; text-rendering:geometricPrecision; image-rendering:optimizeQuality; fill-rule:evenodd; clip-rule:evenodd" xmlns:xlink="http://www.w3.org/1999/xlink">
<g><path style="opacity:1" fill="#3f422d" d="M -0.5,-0.5 C 83.1667,-0.5 166.833,-0.5 250.5,-0.5C 250.5,79.8333 250.5,160.167 250.5,240.5C 166.833,240.5 83.1667,240.5 -0.5,240.5C -0.5,160.167 -0.5,79.8333 -0.5,-0.5 Z"/></g>
<g><path style="opacity:1" fill="#bee5c7" d="M 88.5,6.5 C 89.4972,6.47008 90.1639,6.97008 90.5,8C 94.6915,22.4628 98.6915,36.9628 102.5,51.5C 102.167,52.5 101.833,53.5 101.5,54.5C 93.0098,42.8688 85.5098,30.5354 79,17.5C 81.8934,29.5282 85.2268,41.5282 89,53.5C 89.6667,55.1667 89.6667,56.8333 89,58.5C 83.8614,42.9182 79.0281,27.2515 74.5,11.5C 75.8221,11.33 76.9887,11.6634 78,12.5C 84.7484,24.3324 91.7484,35.9991 99,47.5C 96.0369,33.7628 92.5369,20.0962 88.5,6.5 Z"/></g>
<g><path style="opacity:1" fill="#bee7c8" d="M 171.5,13.5 C 172.497,13.4701 173.164,13.9701 173.5,15C 168.585,25.9971 164.085,37.1638 160,48.5C 159.333,51.8333 159.333,55.1667 160,58.5C 162.632,61.1924 164.966,60.859 167,57.5C 172.55,44.34 178.383,31.34 184.5,18.5C 184.833,19.1667 185.167,19.8333 185.5,20.5C 179.765,33.5361 173.932,46.5361 168,59.5C 163.414,63.9372 159.748,63.2705 157,57.5C 156.333,55.1667 156.333,52.8333 157,50.5C 161.295,37.9176 166.128,25.5843 171.5,13.5 Z"/></g>
<g><path style="opacity:1" fill="#bce3c5" d="M 60.5,16.5 C 61.4959,16.4142 62.3292,16.7476 63,17.5C 70.4399,31.3801 77.6065,45.3801 84.5,59.5C 84.2668,60.9317 83.6001,61.4317 82.5,61C 73.3333,51.1667 64.1667,41.3333 55,31.5C 59.9811,43.1255 65.8144,54.4588 72.5,65.5C 72.1667,65.8333 71.8333,66.1667 71.5,66.5C 63.436,53.091 55.7693,39.4244 48.5,25.5C 49.365,24.4173 50.365,24.2506 51.5,25C 61,35.1667 70.5,45.3333 80,55.5C 73.839,42.4556 67.339,29.4556 60.5,16.5 Z"/></g>
<g><path style="opacity:1" fill="#b8dec1" d="M 112.5,4.5 C 113.496,4.41423 114.329,4.74756 115,5.5C 118.858,20.6592 120.691,35.9926 120.5,51.5C 119.914,51.2907 119.414,50.9574 119,50.5C 120.487,42.1487 117.32,39.482 109.5,42.5C 108.583,45.7577 108.249,49.091 108.5,52.5C 107.5,52.5 106.5,52.5 105.5,52.5C 107.705,36.4266 110.038,20.4266 112.5,4.5 Z"/></g>
<g><path style="opacity:1" fill="#414833" d="M 112.5,8.5 C 113.117,8.61071 113.617,8.94404 114,9.5C 115.757,19.4451 116.924,29.4451 117.5,39.5C 114.833,39.5 112.167,39.5 109.5,39.5C 111.105,29.2403 112.105,18.907 112.5,8.5 Z"/></g>
<g><path style="opacity:1" fill="#bee4c7" d="M 197.5,26.5 C 200.59,27.2093 201.923,28.876 201.5,31.5C 199.405,29.4106 197.572,29.4106 196,31.5C 193.535,36.2694 190.702,40.7694 187.5,45C 191.669,49.1569 191.169,49.9902 186,47.5C 181.587,53.3256 177.42,59.3256 173.5,65.5C 175.167,66.8333 176.833,68.1667 178.5,69.5C 175.463,69.8307 172.797,68.6641 170.5,66C 179.634,52.8913 188.634,39.7246 197.5,26.5 Z"/></g>
<g><path style="opacity:1" fill="#c0e5c8" d="M 148.5,5.5 C 154.937,6.28561 157.603,9.95228 156.5,16.5C 155.787,24.2329 154.62,31.8996 153,39.5C 151.613,44.6753 149.28,49.3419 146,53.5C 145.333,56.1667 145.333,58.8333 146,61.5C 147.205,62.0712 148.372,62.7379 149.5,63.5C 147.389,64.8485 145.555,64.5152 144,62.5C 143.821,59.4465 143.321,56.4465 142.5,53.5C 138.265,51.1827 136.265,47.5161 136.5,42.5C 138.058,32.267 140.558,22.267 144,12.5C 145.012,9.7982 146.512,7.46486 148.5,5.5 Z"/></g>
<g><path style="opacity:1" fill="#3f442f" d="M 149.5,7.5 C 151.582,7.62435 153.082,8.62435 154,10.5C 154.2,24.3714 151.534,37.7048 146,50.5C 143.224,52.1397 141.224,51.473 140,48.5C 138.927,33.794 142.094,20.1274 149.5,7.5 Z"/></g>
<g><path style="opacity:1" fill="#bfe5c8" d="M 225.5,51.5 C 226.5,51.5 227.5,51.5 228.5,51.5C 228.649,52.552 228.483,53.552 228,54.5C 220.288,63.2098 212.955,72.2098 206,81.5C 204.398,83.3687 203.398,85.3687 203,87.5C 214.025,78.9741 225.192,70.6408 236.5,62.5C 236.833,62.8333 237.167,63.1667 237.5,63.5C 224.744,73.7604 211.577,83.427 198,92.5C 196.743,92.1501 196.409,91.4835 197,90.5C 205.119,79.3798 213.619,68.5464 222.5,58C 221.833,57.3333 221.167,57.3333 220.5,58C 210.643,66.0241 200.643,73.8574 190.5,81.5C 190.167,81.1667 189.833,80.8333 189.5,80.5C 201.543,70.7796 213.543,61.113 225.5,51.5 Z"/></g>
<g><path style="opacity:1" fill="#c0e8ca" d="M 212.5,38.5 C 215.562,39.1867 216.895,40.8534 216.5,43.5C 215.38,42.1666 214.047,41.6666 212.5,42C 208.298,45.8666 204.465,50.0332 201,54.5C 200.667,56.0468 201.167,57.3801 202.5,58.5C 202.167,58.8333 201.833,59.1667 201.5,59.5C 200.38,58.1666 199.047,57.6666 197.5,58C 193.701,62.8006 189.534,67.3006 185,71.5C 184.333,72.5 184.333,73.5 185,74.5C 189.796,79.3627 189.296,80.1961 183.5,77C 180.994,74.451 181.16,71.951 184,69.5C 193.706,59.2966 203.206,48.9632 212.5,38.5 Z"/></g>
<g><path style="opacity:1" fill="#bde6c7" d="M 32.5,35.5 C 36.4383,35.6355 39.7717,37.1355 42.5,40C 52.2216,48.0445 60.0549,57.5445 66,68.5C 66.6674,74.1611 64.1674,76.3277 58.5,75C 50.0858,69.9212 42.9192,63.4212 37,55.5C 33.8372,51.8441 31.1705,47.8441 29,43.5C 27.7801,39.7069 28.9468,37.0402 32.5,35.5 Z"/></g>
<g><path style="opacity:1" fill="#404630" d="M 32.5,37.5 C 40.3922,40.0471 46.8922,44.7137 52,51.5C 57.1751,57.1874 61.3418,63.5207 64.5,70.5C 63.0476,73.9443 60.7142,74.4443 57.5,72C 46.9073,64.7419 38.4073,55.5752 32,44.5C 31.2967,42.0709 31.4634,39.7375 32.5,37.5 Z"/></g>
<g><path style="opacity:1" fill="#bde4c6" d="M 14.5,51.5 C 28.3675,61.0207 41.7008,71.3541 54.5,82.5C 54.1667,83.5 53.5,84.1667 52.5,84.5C 39.3585,78.9178 26.3585,73.4178 13.5,68C 24.3881,76.2704 35.0548,84.7704 45.5,93.5C 45.1667,93.8333 44.8333,94.1667 44.5,94.5C 31.9097,84.9543 19.4097,75.2876 7,65.5C 6.56833,64.3999 7.06833,63.7332 8.5,63.5C 20.6113,68.3885 32.6113,73.5551 44.5,79C 45.5,79.6667 46.5,79.6667 47.5,79C 37.1198,70.2849 26.4532,61.9516 15.5,54C 14.7476,53.3292 14.4142,52.4959 14.5,51.5 Z"/></g>
<g><path style="opacity:1" fill="#aa2d2e" d="M 95.5,74.5 C 90.1962,74.0392 85.8628,75.7059 82.5,79.5C 85.4184,74.0836 89.7517,72.417 95.5,74.5 Z"/></g>
<g><path style="opacity:1" fill="#bc2d2d" d="M 95.5,74.5 C 99.081,74.1376 102.081,75.1376 104.5,77.5C 101.016,77.3233 98.016,76.3233 95.5,74.5 Z"/></g>
<g><path style="opacity:1" fill="#7f3627" d="M 118.5,75.5 C 120.628,74.3709 122.961,74.2042 125.5,75C 126.623,76.0437 127.956,76.7104 129.5,77C 130.252,77.6708 130.586,78.5041 130.5,79.5C 126.998,76.6634 122.998,75.3301 118.5,75.5 Z"/></g>
<g><path style="opacity:1" fill="#e12d23" d="M 118.5,75.5 C 122.998,75.3301 126.998,76.6634 130.5,79.5C 135.283,77.6883 140.283,77.1883 145.5,78C 150.332,79.9175 154.999,82.0842 159.5,84.5C 160.757,89.9638 160.757,95.2971 159.5,100.5C 161.026,91.0705 157.359,84.9038 148.5,82C 144.686,81.7655 141.019,80.9322 137.5,79.5C 135.668,80.2485 134.001,81.2485 132.5,82.5C 129.43,80.0871 125.93,78.7538 122,78.5C 119,79.5 116,80.5 113,81.5C 111.319,81.3917 110.152,80.7251 109.5,79.5C 112.289,77.7886 115.289,76.4553 118.5,75.5 Z"/></g>
<g><path style="opacity:1" fill="#b02f2b" d="M 159.5,84.5 C 160.117,84.6107 160.617,84.944 161,85.5C 161.167,88.1667 161.333,90.8333 161.5,93.5C 161.478,96.5902 160.812,99.2568 159.5,101.5C 159.5,101.167 159.5,100.833 159.5,100.5C 160.757,95.2971 160.757,89.9638 159.5,84.5 Z"/></g>
<g><path style="opacity:1" fill="#ec2424" d="M 95.5,74.5 C 98.016,76.3233 101.016,77.3233 104.5,77.5C 104.833,78.1667 105.167,78.8333 105.5,79.5C 104.209,79.2627 103.209,79.596 102.5,80.5C 100.167,80.5 97.8333,80.5 95.5,80.5C 91.7429,80.2864 91.0762,81.2864 93.5,83.5C 96.836,83.573 100.169,83.9064 103.5,84.5C 103.5,85.1667 103.833,85.5 104.5,85.5C 103.72,88.5531 101.72,90.2197 98.5,90.5C 94.9927,95.5227 94.6594,100.689 97.5,106C 97.1667,106.833 96.8333,107.667 96.5,108.5C 92.3992,106.977 88.7325,104.81 85.5,102C 81.589,93.6559 82.9223,86.3225 89.5,80C 93.1667,79.6667 96.8333,79.3333 100.5,79C 96.2581,77.1285 91.9248,77.1285 87.5,79C 85.035,82.4516 83.035,86.1183 81.5,90C 82.0597,93.359 82.7264,96.6924 83.5,100C 82.6443,101.595 81.3109,102.428 79.5,102.5C 79.5,101.5 79.5,100.5 79.5,99.5C 79.5,96.8333 79.5,94.1667 79.5,91.5C 78.8856,86.9681 79.8856,82.9681 82.5,79.5C 85.8628,75.7059 90.1962,74.0392 95.5,74.5 Z"/></g>
<g><path style="opacity:1" fill="#942f2b" d="M 79.5,91.5 C 79.5,94.1667 79.5,96.8333 79.5,99.5C 77.9735,98.5081 77.3068,97.0081 77.5,95C 77.6083,93.3189 78.2749,92.1522 79.5,91.5 Z"/></g>
<g><path style="opacity:1" fill="#e98d2c" d="M 79.5,102.5 C 79.5,103.167 79.5,103.833 79.5,104.5C 77.2279,105.441 75.2279,106.774 73.5,108.5C 72.2719,109.306 71.2719,110.306 70.5,111.5C 69.5987,110.71 68.9321,109.71 68.5,108.5C 69.1098,107.609 69.4431,106.609 69.5,105.5C 73.1207,105.292 76.4541,104.292 79.5,102.5 Z"/></g>
<g><path style="opacity:1" fill="#e83920" d="M 75.5,111.5 C 75.1667,111.5 74.8333,111.5 74.5,111.5C 73.8902,110.609 73.5569,109.609 73.5,108.5C 75.2279,106.774 77.2279,105.441 79.5,104.5C 80.8583,103.374 82.1916,103.374 83.5,104.5C 80.2024,106.132 77.5357,108.465 75.5,111.5 Z"/></g>
<g><path style="opacity:1" fill="#d2a863" d="M 161.5,104.5 C 166.103,105.383 170.77,105.717 175.5,105.5C 179.377,107.172 183.377,108.839 187.5,110.5C 185.901,110.232 184.568,110.566 183.5,111.5C 179.382,109.881 175.048,108.881 170.5,108.5C 169.584,108.543 168.917,108.876 168.5,109.5C 167.596,108.791 167.263,107.791 167.5,106.5C 164.99,106.946 162.99,106.28 161.5,104.5 Z"/></g>
<g><path style="opacity:1" fill="#e69936" d="M 183.5,111.5 C 184.568,110.566 185.901,110.232 187.5,110.5C 190.015,110.769 192.015,111.769 193.5,113.5C 190.017,113.309 186.684,112.643 183.5,111.5 Z"/></g>
<g><path style="opacity:1" fill="#e9501e" d="M 85.5,115.5 C 85.1667,115.5 84.8333,115.5 84.5,115.5C 84.1667,115.5 83.8333,115.5 83.5,115.5C 78.2228,114.193 78.2228,112.693 83.5,111C 81.735,110.36 80.0683,110.527 78.5,111.5C 79.3589,108.548 81.3589,106.715 84.5,106C 87.8245,105.498 90.1578,106.831 91.5,110C 89.2852,111.044 86.9519,111.71 84.5,112C 89.5,112.333 94.5,112.667 99.5,113C 94.7243,113.346 90.0577,114.179 85.5,115.5 Z"/></g>
<g><path style="opacity:1" fill="#aacdb2" d="M 69.5,105.5 C 69.4431,106.609 69.1098,107.609 68.5,108.5C 66.5487,109.282 65.0487,110.616 64,112.5C 63.8195,115.695 63.3195,118.695 62.5,121.5C 60.8828,122.038 59.2161,122.371 57.5,122.5C 56.6404,115.908 58.6404,110.408 63.5,106C 65.4727,105.505 67.4727,105.338 69.5,105.5 Z"/></g>
<g><path style="opacity:1" fill="#fee69c" d="M 73.5,108.5 C 73.5569,109.609 73.8902,110.609 74.5,111.5C 72.5992,120.681 71.2659,120.681 70.5,111.5C 71.2719,110.306 72.2719,109.306 73.5,108.5 Z"/></g>
<g><path style="opacity:1" fill="#eb301c" d="M 95.5,118.5 C 94.8333,118.167 94.1667,117.833 93.5,117.5C 93.1667,117.5 92.8333,117.5 92.5,117.5C 93.6936,116.223 95.3603,115.556 97.5,115.5C 99.1667,115.833 100.833,116.167 102.5,116.5C 100.392,117.944 98.0588,118.61 95.5,118.5 Z"/></g>
<g><path style="opacity:1" fill="#ed5521" d="M 143.5,120.5 C 145.138,121.705 145.471,123.038 144.5,124.5C 143.609,125.11 142.609,125.443 141.5,125.5C 137.952,124.393 134.619,122.726 131.5,120.5C 135.405,116.867 139.405,116.867 143.5,120.5 Z"/></g>
<g><path style="opacity:1" fill="#f6bf94" d="M 152.5,117.5 C 152.733,119.062 153.4,120.395 154.5,121.5C 154.167,121.5 153.833,121.5 153.5,121.5C 152.518,120.859 151.518,120.193 150.5,119.5C 149.818,120.243 149.151,120.909 148.5,121.5C 148.5,121.167 148.5,120.833 148.5,120.5C 148.047,119.542 147.381,118.708 146.5,118C 148.602,118.256 150.602,118.089 152.5,117.5 Z"/></g>
<g><path style="opacity:1" fill="#fde79d" d="M 163.5,113.5 C 167.659,115.18 169.826,118.18 170,122.5C 167.044,119.278 163.544,116.944 159.5,115.5C 159.5,115.167 159.5,114.833 159.5,114.5C 160.959,114.567 162.292,114.234 163.5,113.5 Z"/></g>
<g><path style="opacity:1" fill="#aad1b8" d="M 183.5,111.5 C 186.684,112.643 190.017,113.309 193.5,113.5C 195.727,115.573 197.394,118.073 198.5,121C 197.701,123.149 196.867,125.316 196,127.5C 189.562,133.637 182.729,138.971 175.5,143.5C 169.304,145.755 162.97,147.755 156.5,149.5C 153.498,150.643 150.498,150.643 147.5,149.5C 147.863,148.817 148.196,148.15 148.5,147.5C 149.552,147.649 150.552,147.483 151.5,147C 153.319,146.26 154.652,145.093 155.5,143.5C 157.404,143.262 158.738,142.262 159.5,140.5C 161.712,139.355 164.045,138.355 166.5,137.5C 168.611,136.395 169.945,134.729 170.5,132.5C 170.796,130.597 171.463,128.93 172.5,127.5C 174.279,125.164 175.279,122.33 175.5,119C 175.301,116.552 174.301,114.719 172.5,113.5C 171.167,112.167 169.833,110.833 168.5,109.5C 168.917,108.876 169.584,108.543 170.5,108.5C 175.048,108.881 179.382,109.881 183.5,111.5 Z"/></g>
<g><path style="opacity:1" fill="#e62a22" d="M 99.5,119.5 C 107.859,119.526 116.193,120.026 124.5,121C 128.613,122.188 132.28,124.021 135.5,126.5C 133.167,126.5 130.833,126.5 128.5,126.5C 125.61,125.755 122.61,125.088 119.5,124.5C 113.537,122.01 107.204,121.01 100.5,121.5C 100.167,120.833 99.8333,120.167 99.5,119.5 Z"/></g>
<g><path style="opacity:1" fill="#e6da9f" d="M 172.5,113.5 C 174.301,114.719 175.301,116.552 175.5,119C 175.279,122.33 174.279,125.164 172.5,127.5C 173.778,122.802 173.778,118.135 172.5,113.5 Z"/></g>
<g><path style="opacity:1" fill="#ea9f3f" d="M 68.5,108.5 C 68.9321,109.71 69.5987,110.71 70.5,111.5C 71.2659,120.681 72.5992,120.681 74.5,111.5C 74.8333,111.5 75.1667,111.5 75.5,111.5C 76.5,111.5 77.5,111.5 78.5,111.5C 80.0683,110.527 81.735,110.36 83.5,111C 78.2228,112.693 78.2228,114.193 83.5,115.5C 80.0125,116.143 77.5125,118.143 76,121.5C 73.7998,126.303 73.1332,131.303 74,136.5C 76.8563,141.853 81.3563,143.853 87.5,142.5C 88.1667,143.167 88.8333,143.833 89.5,144.5C 87.0656,146.481 87.7323,147.481 91.5,147.5C 95.2723,147.134 98.6057,145.801 101.5,143.5C 101.842,144.338 102.508,144.672 103.5,144.5C 102.013,145.804 100.346,146.97 98.5,148C 99.7932,148.49 101.127,148.657 102.5,148.5C 102.833,149.167 103.167,149.833 103.5,150.5C 100.833,150.5 98.1667,150.5 95.5,150.5C 88.3224,149.212 81.6557,146.712 75.5,143C 74.2509,141.02 72.9176,139.187 71.5,137.5C 72.2503,133.225 70.917,129.891 67.5,127.5C 66.7281,126.306 65.7281,125.306 64.5,124.5C 63.7375,123.732 62.7375,123.232 61.5,123C 62.056,122.617 62.3893,122.117 62.5,121.5C 63.3195,118.695 63.8195,115.695 64,112.5C 65.0487,110.616 66.5487,109.282 68.5,108.5 Z"/></g>
<g><path style="opacity:1" fill="#fdea9b" d="M 65.5,113.5 C 70.1482,116.821 71.3149,121.154 69,126.5C 65.8533,122.794 64.6866,118.461 65.5,113.5 Z"/></g>
<g><path style="opacity:1" fill="#f67a28" d="M 104.5,85.5 C 107.084,84.9517 108.084,83.285 107.5,80.5C 105.833,80.5 104.167,80.5 102.5,80.5C 103.209,79.596 104.209,79.2627 105.5,79.5C 106.833,79.5 108.167,79.5 109.5,79.5C 110.152,80.7251 111.319,81.3917 113,81.5C 116,80.5 119,79.5 122,78.5C 125.93,78.7538 129.43,80.0871 132.5,82.5C 134.001,81.2485 135.668,80.2485 137.5,79.5C 141.019,80.9322 144.686,81.7655 148.5,82C 157.359,84.9038 161.026,91.0705 159.5,100.5C 159.5,100.833 159.5,101.167 159.5,101.5C 159.5,102.167 159.5,102.833 159.5,103.5C 158.325,103.281 157.325,103.614 156.5,104.5C 158.937,105.926 161.437,107.259 164,108.5C 164.64,110.265 164.473,111.932 163.5,113.5C 162.292,114.234 160.959,114.567 159.5,114.5C 159.5,114.833 159.5,115.167 159.5,115.5C 156.848,115.41 154.515,116.076 152.5,117.5C 150.602,118.089 148.602,118.256 146.5,118C 147.381,118.708 148.047,119.542 148.5,120.5C 147.508,120.328 146.842,120.662 146.5,121.5C 145.849,120.909 145.182,120.243 144.5,119.5C 143.893,119.624 143.56,119.957 143.5,120.5C 139.405,116.867 135.405,116.867 131.5,120.5C 134.619,122.726 137.952,124.393 141.5,125.5C 140.791,126.404 139.791,126.737 138.5,126.5C 137.5,126.5 136.5,126.5 135.5,126.5C 132.28,124.021 128.613,122.188 124.5,121C 116.193,120.026 107.859,119.526 99.5,119.5C 97.901,119.768 96.5676,119.434 95.5,118.5C 98.0588,118.61 100.392,117.944 102.5,116.5C 100.833,116.167 99.1667,115.833 97.5,115.5C 95.3603,115.556 93.6936,116.223 92.5,117.5C 91.8333,117.5 91.1667,117.5 90.5,117.5C 88.8333,116.833 87.1667,116.167 85.5,115.5C 90.0577,114.179 94.7243,113.346 99.5,113C 94.5,112.667 89.5,112.333 84.5,112C 86.9519,111.71 89.2852,111.044 91.5,110C 90.1578,106.831 87.8245,105.498 84.5,106C 81.3589,106.715 79.3589,108.548 78.5,111.5C 77.5,111.5 76.5,111.5 75.5,111.5C 77.5357,108.465 80.2024,106.132 83.5,104.5C 82.1916,103.374 80.8583,103.374 79.5,104.5C 79.5,103.833 79.5,103.167 79.5,102.5C 81.3109,102.428 82.6443,101.595 83.5,100C 82.7264,96.6924 82.0597,93.359 81.5,90C 83.035,86.1183 85.035,82.4516 87.5,79C 91.9248,77.1285 96.2581,77.1285 100.5,79C 96.8333,79.3333 93.1667,79.6667 89.5,80C 82.9223,86.3225 81.589,93.6559 85.5,102C 88.7325,104.81 92.3992,106.977 96.5,108.5C 96.8333,107.667 97.1667,106.833 97.5,106C 94.6594,100.689 94.9927,95.5227 98.5,90.5C 101.72,90.2197 103.72,88.5531 104.5,85.5 Z"/></g>
<g><path style="opacity:1" fill="#e32d16" d="M 159.5,114.5 C 154.073,113.535 148.739,112.369 143.5,111C 149.253,110.149 154.92,110.483 160.5,112C 159.748,112.671 159.414,113.504 159.5,114.5 Z"/></g>
<g><path style="opacity:1" fill="#eb2523" d="M 136.5,81.5 C 143.818,81.7857 150.318,84.1191 156,88.5C 159.559,96.7284 157.726,103.228 150.5,108C 147.854,108.497 145.187,108.664 142.5,108.5C 141.993,102.466 141.159,96.466 140,90.5C 138.542,88.04 136.709,85.8734 134.5,84C 135.381,83.2917 136.047,82.4584 136.5,81.5 Z"/></g>
<g><path style="opacity:1" fill="#fbdfe8" d="M 153.5,92.5 C 156.167,94.1667 156.167,95.8333 153.5,97.5C 153.5,95.8333 153.5,94.1667 153.5,92.5 Z"/></g>
<g><path style="opacity:1" fill="#bd4248" d="M 149.5,92.5 C 150.833,92.5 152.167,92.5 153.5,92.5C 153.5,94.1667 153.5,95.8333 153.5,97.5C 152.566,96.4324 152.232,95.099 152.5,93.5C 151.209,93.7373 150.209,93.404 149.5,92.5 Z"/></g>
<g><path style="opacity:1" fill="#ed2124" d="M 131.5,84.5 C 129.076,84.1924 126.743,84.5258 124.5,85.5C 124.624,86.1067 124.957,86.44 125.5,86.5C 125.5,87.8333 125.5,89.1667 125.5,90.5C 127.527,90.3379 129.527,90.5045 131.5,91C 132.329,92.8161 133.163,94.6494 134,96.5C 134.944,95.737 135.444,94.737 135.5,93.5C 134.063,91.4229 133.396,89.0895 133.5,86.5C 135.708,87.023 137.208,88.3563 138,90.5C 138.995,95.3053 139.829,100.139 140.5,105C 140.604,107.145 139.937,108.979 138.5,110.5C 135.349,113.15 132.349,115.984 129.5,119C 121.521,118.529 113.521,117.862 105.5,117C 104.587,114.667 103.087,112.834 101,111.5C 97.6071,105.424 96.9404,99.0902 99,92.5C 102.719,90.7902 105.886,88.2902 108.5,85C 113.393,83.6488 118.059,81.8155 122.5,79.5C 125.875,80.6137 128.875,82.2804 131.5,84.5 Z"/></g>
<g><path style="opacity:1" fill="#ffc8d6" d="M 153.5,92.5 C 152.167,92.5 150.833,92.5 149.5,92.5C 148.697,91.5768 148.53,90.5768 149,89.5C 150.878,90.0527 152.378,91.0527 153.5,92.5 Z"/></g>
<g><path style="opacity:1" fill="#f7b1b3" d="M 143.5,86.5 C 145.185,85.156 146.852,85.3227 148.5,87C 146.735,87.6397 145.068,87.4731 143.5,86.5 Z"/></g>
<g><path style="opacity:1" fill="#fbeded" d="M 131.5,85.5 C 132.167,85.8333 132.833,86.1667 133.5,86.5C 133.396,89.0895 134.063,91.4229 135.5,93.5C 135.444,94.737 134.944,95.737 134,96.5C 133.163,94.6494 132.329,92.8161 131.5,91C 129.527,90.5045 127.527,90.3379 125.5,90.5C 125.5,89.1667 125.5,87.8333 125.5,86.5C 127.265,85.5386 129.265,85.2053 131.5,85.5 Z"/></g>
<g><path style="opacity:1" fill="#f98d94" d="M 131.5,84.5 C 131.5,84.8333 131.5,85.1667 131.5,85.5C 129.265,85.2053 127.265,85.5386 125.5,86.5C 124.957,86.44 124.624,86.1067 124.5,85.5C 126.743,84.5258 129.076,84.1924 131.5,84.5 Z"/></g>
<g><path style="opacity:1" fill="#d05334" d="M 95.5,80.5 C 97.8333,80.5 100.167,80.5 102.5,80.5C 104.167,80.5 105.833,80.5 107.5,80.5C 108.084,83.285 107.084,84.9517 104.5,85.5C 103.833,85.5 103.5,85.1667 103.5,84.5C 105.745,84.4588 106.412,83.6255 105.5,82C 101.975,81.8213 98.6414,81.3213 95.5,80.5 Z"/></g>
<g><path style="opacity:1" fill="#fde6e5" d="M 95.5,80.5 C 98.6414,81.3213 101.975,81.8213 105.5,82C 106.412,83.6255 105.745,84.4588 103.5,84.5C 100.169,83.9064 96.836,83.573 93.5,83.5C 91.0762,81.2864 91.7429,80.2864 95.5,80.5 Z"/></g>
<g><path style="opacity:1" fill="#ec9a34" d="M 159.5,103.5 C 159.842,104.338 160.508,104.672 161.5,104.5C 162.99,106.28 164.99,106.946 167.5,106.5C 167.263,107.791 167.596,108.791 168.5,109.5C 169.833,110.833 171.167,112.167 172.5,113.5C 173.778,118.135 173.778,122.802 172.5,127.5C 171.463,128.93 170.796,130.597 170.5,132.5C 166.618,134.934 162.952,137.601 159.5,140.5C 158.738,142.262 157.404,143.262 155.5,143.5C 153.697,144.046 152.03,144.88 150.5,146C 148.613,146.78 146.946,146.613 145.5,145.5C 155.631,140.053 158.297,132.053 153.5,121.5C 153.833,121.5 154.167,121.5 154.5,121.5C 156.2,122.016 157.533,123.016 158.5,124.5C 157.738,128.111 157.238,131.778 157,135.5C 156.464,137.869 155.297,139.869 153.5,141.5C 154.002,142.521 154.668,142.688 155.5,142C 157.543,140.292 159.21,138.292 160.5,136C 163.761,135.574 165.428,133.741 165.5,130.5C 163.526,123.859 159.192,119.526 152.5,117.5C 154.515,116.076 156.848,115.41 159.5,115.5C 163.544,116.944 167.044,119.278 170,122.5C 169.826,118.18 167.659,115.18 163.5,113.5C 164.473,111.932 164.64,110.265 164,108.5C 161.437,107.259 158.937,105.926 156.5,104.5C 157.325,103.614 158.325,103.281 159.5,103.5 Z"/></g>
<g><path style="opacity:1" fill="#fed57f" d="M 165.5,110.5 C 169.099,111.584 170.932,113.917 171,117.5C 168.546,115.559 166.713,113.225 165.5,110.5 Z"/></g>
<g><path style="opacity:1" fill="#c5b67a" d="M 62.5,121.5 C 62.3893,122.117 62.056,122.617 61.5,123C 62.7375,123.232 63.7375,123.732 64.5,124.5C 62.7839,124.629 61.1172,124.962 59.5,125.5C 61.0544,124.105 60.721,123.439 58.5,123.5C 56.8228,124.187 55.1561,124.854 53.5,125.5C 53.8333,124.833 54.1667,124.167 54.5,123.5C 55.209,122.596 56.209,122.263 57.5,122.5C 59.2161,122.371 60.8828,122.038 62.5,121.5 Z"/></g>
<g><path style="opacity:1" fill="#fde294" d="M 158.5,118.5 C 164.242,118.708 167.909,121.875 169.5,128C 169.167,128.833 168.833,129.667 168.5,130.5C 166.944,124.95 163.611,120.95 158.5,118.5 Z"/></g>
<g><path style="opacity:1" fill="#c9c791" d="M 67.5,127.5 C 70.917,129.891 72.2503,133.225 71.5,137.5C 70.2137,134.244 68.8804,130.911 67.5,127.5 Z"/></g>
<g><path style="opacity:1" fill="#d9a150" d="M 193.5,113.5 C 201.68,115.539 203.513,120.205 199,127.5C 192.829,135.485 184.996,140.819 175.5,143.5C 182.729,138.971 189.562,133.637 196,127.5C 196.867,125.316 197.701,123.149 198.5,121C 197.394,118.073 195.727,115.573 193.5,113.5 Z"/></g>
<g><path style="opacity:1" fill="#ee9b37" d="M 84.5,115.5 C 84.8333,115.5 85.1667,115.5 85.5,115.5C 87.1667,116.167 88.8333,116.833 90.5,117.5C 81.9677,119.229 79.1344,124.229 82,132.5C 83.2635,134.607 85.0968,135.607 87.5,135.5C 84.8572,132.66 84.0239,129.327 85,125.5C 87.7757,122.551 90.609,119.884 93.5,117.5C 94.1667,117.833 94.8333,118.167 95.5,118.5C 96.5676,119.434 97.901,119.768 99.5,119.5C 99.8333,120.167 100.167,120.833 100.5,121.5C 99.7611,121.369 99.0944,121.536 98.5,122C 101.992,121.93 104.992,122.763 107.5,124.5C 107.167,124.5 106.833,124.5 106.5,124.5C 101.684,123.35 96.6842,123.184 91.5,124C 89.0955,124.196 87.4289,125.362 86.5,127.5C 87.9584,128.782 89.2918,128.782 90.5,127.5C 106.956,126.051 121.623,130.385 134.5,140.5C 135.833,139.833 136.833,138.833 137.5,137.5C 130.47,130.482 122.136,126.482 112.5,125.5C 114.861,125.326 117.194,124.993 119.5,124.5C 122.61,125.088 125.61,125.755 128.5,126.5C 127.761,126.369 127.094,126.536 126.5,127C 131.554,129.389 136.054,132.555 140,136.5C 140.66,134.676 141.827,133.343 143.5,132.5C 143.502,134.831 142.669,136.831 141,138.5C 137.908,140.629 134.742,142.629 131.5,144.5C 141.622,144.729 147.622,139.729 149.5,129.5C 149.052,126.609 148.052,123.942 146.5,121.5C 146.842,120.662 147.508,120.328 148.5,120.5C 148.5,120.833 148.5,121.167 148.5,121.5C 152.913,128.294 152.246,134.628 146.5,140.5C 143.678,143.413 140.345,145.58 136.5,147C 137.793,147.49 139.127,147.657 140.5,147.5C 138.393,148.468 136.059,148.802 133.5,148.5C 131.5,148.167 129.5,147.833 127.5,147.5C 126.766,146.292 126.433,144.959 126.5,143.5C 123.043,146.092 119.376,148.592 115.5,151C 111.476,151.497 107.476,151.331 103.5,150.5C 103.167,149.833 102.833,149.167 102.5,148.5C 108.453,146.209 111.119,141.876 110.5,135.5C 109.5,135.5 108.5,135.5 107.5,135.5C 107.657,136.873 107.49,138.207 107,139.5C 106.098,141.431 104.931,143.097 103.5,144.5C 102.508,144.672 101.842,144.338 101.5,143.5C 104.358,141.288 105.691,138.288 105.5,134.5C 104.5,134.5 103.5,134.5 102.5,134.5C 101.111,141.547 96.7773,144.88 89.5,144.5C 88.8333,143.833 88.1667,143.167 87.5,142.5C 90.4005,142.72 93.0671,142.054 95.5,140.5C 78.3717,138.093 74.705,129.759 84.5,115.5 Z"/></g>
<g><path style="opacity:1" fill="#fbeaa3" d="M 128.5,126.5 C 130.833,126.5 133.167,126.5 135.5,126.5C 136.5,126.5 137.5,126.5 138.5,126.5C 140.97,127.884 142.637,129.884 143.5,132.5C 141.827,133.343 140.66,134.676 140,136.5C 136.054,132.555 131.554,129.389 126.5,127C 127.094,126.536 127.761,126.369 128.5,126.5 Z"/></g>
<g><path style="opacity:1" fill="#fde599" d="M 87.5,129.5 C 100.971,128.16 113.638,130.66 125.5,137C 127.585,138.041 129.252,139.541 130.5,141.5C 129.277,142.614 127.944,142.781 126.5,142C 122.021,138.393 117.021,135.726 111.5,134C 103.852,132.381 96.1855,132.048 88.5,133C 87.6634,131.989 87.33,130.822 87.5,129.5 Z"/></g>
<g><path style="opacity:1" fill="#fceaa5" d="M 106.5,124.5 C 106.833,124.5 107.167,124.5 107.5,124.5C 109.117,125.038 110.784,125.371 112.5,125.5C 122.136,126.482 130.47,130.482 137.5,137.5C 136.833,138.833 135.833,139.833 134.5,140.5C 121.623,130.385 106.956,126.051 90.5,127.5C 89.7611,127.631 89.0944,127.464 88.5,127C 94.2212,124.773 100.221,123.939 106.5,124.5 Z"/></g>
<g><path style="opacity:1" fill="#f29d3b" d="M 144.5,124.5 C 144.894,125.967 145.227,127.467 145.5,129C 145.613,130.699 144.947,131.866 143.5,132.5C 142.637,129.884 140.97,127.884 138.5,126.5C 139.791,126.737 140.791,126.404 141.5,125.5C 142.609,125.443 143.609,125.11 144.5,124.5 Z"/></g>
<g><path style="opacity:1" fill="#fee08a" d="M 106.5,124.5 C 100.221,123.939 94.2212,124.773 88.5,127C 89.0944,127.464 89.7611,127.631 90.5,127.5C 89.2918,128.782 87.9584,128.782 86.5,127.5C 87.4289,125.362 89.0955,124.196 91.5,124C 96.6842,123.184 101.684,123.35 106.5,124.5 Z"/></g>
<g><path style="opacity:1" fill="#f26d26" d="M 100.5,121.5 C 107.204,121.01 113.537,122.01 119.5,124.5C 117.194,124.993 114.861,125.326 112.5,125.5C 110.784,125.371 109.117,125.038 107.5,124.5C 104.992,122.763 101.992,121.93 98.5,122C 99.0944,121.536 99.7611,121.369 100.5,121.5 Z"/></g>
<g><path style="opacity:1" fill="#fde89c" d="M 90.5,117.5 C 91.1667,117.5 91.8333,117.5 92.5,117.5C 92.8333,117.5 93.1667,117.5 93.5,117.5C 90.609,119.884 87.7757,122.551 85,125.5C 84.0239,129.327 84.8572,132.66 87.5,135.5C 85.0968,135.607 83.2635,134.607 82,132.5C 79.1344,124.229 81.9677,119.229 90.5,117.5 Z"/></g>
<g><path style="opacity:1" fill="#fceaa9" d="M 146.5,121.5 C 148.052,123.942 149.052,126.609 149.5,129.5C 147.622,139.729 141.622,144.729 131.5,144.5C 134.742,142.629 137.908,140.629 141,138.5C 142.669,136.831 143.502,134.831 143.5,132.5C 144.947,131.866 145.613,130.699 145.5,129C 145.227,127.467 144.894,125.967 144.5,124.5C 145.471,123.038 145.138,121.705 143.5,120.5C 143.56,119.957 143.893,119.624 144.5,119.5C 145.182,120.243 145.849,120.909 146.5,121.5 Z"/></g>
<g><path style="opacity:1" fill="#fceaa2" d="M 153.5,121.5 C 158.297,132.053 155.631,140.053 145.5,145.5C 143.833,146.167 142.167,146.833 140.5,147.5C 139.127,147.657 137.793,147.49 136.5,147C 140.345,145.58 143.678,143.413 146.5,140.5C 152.246,134.628 152.913,128.294 148.5,121.5C 149.151,120.909 149.818,120.243 150.5,119.5C 151.518,120.193 152.518,120.859 153.5,121.5 Z"/></g>
<g><path style="opacity:1" fill="#ede3a4" d="M 170.5,132.5 C 169.945,134.729 168.611,136.395 166.5,137.5C 164.045,138.355 161.712,139.355 159.5,140.5C 162.952,137.601 166.618,134.934 170.5,132.5 Z"/></g>
<g><path style="opacity:1" fill="#fcce72" d="M 87.5,135.5 C 91.8346,135.917 96.1679,136.417 100.5,137C 96.5668,138.626 92.5668,138.626 88.5,137C 87.944,136.617 87.6107,136.117 87.5,135.5 Z"/></g>
<g><path style="opacity:1" fill="#adcbaf" d="M 175.5,105.5 C 183.29,106.354 190.956,107.854 198.5,110C 209.53,113.495 211.363,119.662 204,128.5C 191.99,141.591 177.157,149.591 159.5,152.5C 159.5,152.167 159.5,151.833 159.5,151.5C 163.366,149.71 167.366,148.21 171.5,147C 173.319,146.26 174.652,145.093 175.5,143.5C 184.996,140.819 192.829,135.485 199,127.5C 203.513,120.205 201.68,115.539 193.5,113.5C 192.015,111.769 190.015,110.769 187.5,110.5C 183.377,108.839 179.377,107.172 175.5,105.5 Z"/></g>
<g><path style="opacity:1" fill="#fceca2" d="M 83.5,115.5 C 83.8333,115.5 84.1667,115.5 84.5,115.5C 74.705,129.759 78.3717,138.093 95.5,140.5C 93.0671,142.054 90.4005,142.72 87.5,142.5C 81.3563,143.853 76.8563,141.853 74,136.5C 73.1332,131.303 73.7998,126.303 76,121.5C 77.5125,118.143 80.0125,116.143 83.5,115.5 Z"/></g>
<g><path style="opacity:1" fill="#fde291" d="M 112.5,136.5 C 114.635,136.147 115.968,136.98 116.5,139C 115.387,144.113 112.387,147.113 107.5,148C 111.04,145.035 112.707,141.201 112.5,136.5 Z"/></g>
<g><path style="opacity:1" fill="#fbe299" d="M 152.5,117.5 C 159.192,119.526 163.526,123.859 165.5,130.5C 165.428,133.741 163.761,135.574 160.5,136C 159.21,138.292 157.543,140.292 155.5,142C 154.668,142.688 154.002,142.521 153.5,141.5C 155.297,139.869 156.464,137.869 157,135.5C 157.238,131.778 157.738,128.111 158.5,124.5C 157.533,123.016 156.2,122.016 154.5,121.5C 153.4,120.395 152.733,119.062 152.5,117.5 Z"/></g>
<g><path style="opacity:1" fill="#fce99e" d="M 102.5,148.5 C 101.127,148.657 99.7932,148.49 98.5,148C 100.346,146.97 102.013,145.804 103.5,144.5C 104.931,143.097 106.098,141.431 107,139.5C 107.49,138.207 107.657,136.873 107.5,135.5C 108.5,135.5 109.5,135.5 110.5,135.5C 111.119,141.876 108.453,146.209 102.5,148.5 Z"/></g>
<g><path style="opacity:1" fill="#fde89e" d="M 101.5,143.5 C 98.6057,145.801 95.2723,147.134 91.5,147.5C 87.7323,147.481 87.0656,146.481 89.5,144.5C 96.7773,144.88 101.111,141.547 102.5,134.5C 103.5,134.5 104.5,134.5 105.5,134.5C 105.691,138.288 104.358,141.288 101.5,143.5 Z"/></g>
<g><path style="opacity:1" fill="#fce9a4" d="M 118.5,138.5 C 121.072,139.323 122.239,140.989 122,143.5C 119.998,146.887 117.165,148.387 113.5,148C 116.361,145.443 118.028,142.277 118.5,138.5 Z"/></g>
<g><path style="opacity:1" fill="#aad1b8" d="M 64.5,124.5 C 65.7281,125.306 66.7281,126.306 67.5,127.5C 68.8804,130.911 70.2137,134.244 71.5,137.5C 72.9176,139.187 74.2509,141.02 75.5,143C 81.6557,146.712 88.3224,149.212 95.5,150.5C 104.336,152.701 113.336,152.867 122.5,151C 123.789,149.198 125.456,148.031 127.5,147.5C 129.5,147.833 131.5,148.167 133.5,148.5C 133.5,149.167 133.833,149.5 134.5,149.5C 138.021,150.166 141.687,150.833 145.5,151.5C 143.234,152.314 140.9,152.814 138.5,153C 137.944,153.383 137.611,153.883 137.5,154.5C 117.401,157.623 97.0675,158.289 76.5,156.5C 66.3314,155.423 56.6647,152.756 47.5,148.5C 42.69,146.221 40.8566,142.554 42,137.5C 46.6844,131.62 52.5178,127.62 59.5,125.5C 61.1172,124.962 62.7839,124.629 64.5,124.5 Z"/></g>
<g><path style="opacity:1" fill="#d9a657" d="M 155.5,143.5 C 154.652,145.093 153.319,146.26 151.5,147C 150.552,147.483 149.552,147.649 148.5,147.5C 143.933,148.736 139.266,149.402 134.5,149.5C 133.833,149.5 133.5,149.167 133.5,148.5C 136.059,148.802 138.393,148.468 140.5,147.5C 142.167,146.833 143.833,146.167 145.5,145.5C 146.946,146.613 148.613,146.78 150.5,146C 152.03,144.88 153.697,144.046 155.5,143.5 Z"/></g>
<g><path style="opacity:1" fill="#d69f4b" d="M 175.5,143.5 C 174.652,145.093 173.319,146.26 171.5,147C 167.366,148.21 163.366,149.71 159.5,151.5C 158.127,151.657 156.793,151.49 155.5,151C 156.056,150.617 156.389,150.117 156.5,149.5C 162.97,147.755 169.304,145.755 175.5,143.5 Z"/></g>
<g><path style="opacity:1" fill="#aacbb1" d="M 54.5,123.5 C 54.1667,124.167 53.8333,124.833 53.5,125.5C 34.1205,137.048 35.1205,146.881 56.5,155C 61.8324,155.947 67.1657,156.78 72.5,157.5C 73.2625,158.268 74.2625,158.768 75.5,159C 82.1583,159.5 88.825,159.666 95.5,159.5C 95.5,160.167 95.5,160.833 95.5,161.5C 75.1496,162.597 55.8162,158.763 37.5,150C 32.4967,146.486 31.33,141.986 34,136.5C 38.9494,129.271 45.7827,124.938 54.5,123.5 Z"/></g>
<g><path style="opacity:1" fill="#d99f4b" d="M 59.5,125.5 C 52.5178,127.62 46.6844,131.62 42,137.5C 40.8566,142.554 42.69,146.221 47.5,148.5C 56.6647,152.756 66.3314,155.423 76.5,156.5C 75.4324,157.434 74.099,157.768 72.5,157.5C 67.1657,156.78 61.8324,155.947 56.5,155C 35.1205,146.881 34.1205,137.048 53.5,125.5C 55.1561,124.854 56.8228,124.187 58.5,123.5C 60.721,123.439 61.0544,124.105 59.5,125.5 Z"/></g>
<g><path style="opacity:1" fill="#f0e6a4" d="M 127.5,147.5 C 125.456,148.031 123.789,149.198 122.5,151C 113.336,152.867 104.336,152.701 95.5,150.5C 98.1667,150.5 100.833,150.5 103.5,150.5C 107.476,151.331 111.476,151.497 115.5,151C 119.376,148.592 123.043,146.092 126.5,143.5C 126.433,144.959 126.766,146.292 127.5,147.5 Z"/></g>
<g><path style="opacity:1" fill="#c0c397" d="M 148.5,147.5 C 148.196,148.15 147.863,148.817 147.5,149.5C 150.498,150.643 153.498,150.643 156.5,149.5C 156.389,150.117 156.056,150.617 155.5,151C 156.793,151.49 158.127,151.657 159.5,151.5C 159.5,151.833 159.5,152.167 159.5,152.5C 152.823,155.256 145.823,157.256 138.5,158.5C 141.742,156.592 145.076,154.925 148.5,153.5C 144.766,153.323 141.099,153.656 137.5,154.5C 137.611,153.883 137.944,153.383 138.5,153C 140.9,152.814 143.234,152.314 145.5,151.5C 141.687,150.833 138.021,150.166 134.5,149.5C 139.266,149.402 143.933,148.736 148.5,147.5 Z"/></g>
<g><path style="opacity:1" fill="#df9b3f" d="M 148.5,153.5 C 150.088,151.384 152.088,151.051 154.5,152.5C 152.604,153.466 150.604,153.799 148.5,153.5 Z"/></g>
<g><path style="opacity:1" fill="#dba557" d="M 148.5,153.5 C 145.076,154.925 141.742,156.592 138.5,158.5C 138.167,158.5 137.833,158.5 137.5,158.5C 128.845,159.083 120.178,159.416 111.5,159.5C 106.167,159.5 100.833,159.5 95.5,159.5C 88.825,159.666 82.1583,159.5 75.5,159C 74.2625,158.768 73.2625,158.268 72.5,157.5C 74.099,157.768 75.4324,157.434 76.5,156.5C 97.0675,158.289 117.401,157.623 137.5,154.5C 141.099,153.656 144.766,153.323 148.5,153.5 Z"/></g>
<g><path style="opacity:1" fill="#a2a77e" d="M 95.5,159.5 C 100.833,159.5 106.167,159.5 111.5,159.5C 114.962,160.482 118.629,160.815 122.5,160.5C 113.682,161.493 104.682,161.827 95.5,161.5C 95.5,160.833 95.5,160.167 95.5,159.5 Z"/></g>
<g><path style="opacity:1" fill="#a5c3ae" d="M 137.5,158.5 C 132.783,160.238 127.783,160.904 122.5,160.5C 118.629,160.815 114.962,160.482 111.5,159.5C 120.178,159.416 128.845,159.083 137.5,158.5 Z"/></g>
<g><path style="opacity:1" fill="#cce8cb" d="M 129.5,175.5 C 133.991,174.259 135.324,174.259 133.5,175.5C 133.167,200.833 132.833,200.833 132.5,175.5C 131.5,175.5 130.5,175.5 129.5,175.5 Z"/></g>
<g><path style="opacity:1" fill="#95aa92" d="M 112.5,174.5 C 113.748,175.334 114.415,176.667 114.5,178.5C 116.031,185.337 116.031,189.337 114.5,190.5C 113.167,190.5 111.833,190.5 110.5,190.5C 110.688,192.103 110.188,193.437 109,194.5C 109.705,187.802 110.872,181.135 112.5,174.5 Z"/></g>
<g><path style="opacity:1" fill="#90a68c" d="M 165.5,174.5 C 166.117,174.611 166.617,174.944 167,175.5C 168.237,181.841 168.403,188.174 167.5,194.5C 166.571,193.311 166.238,191.978 166.5,190.5C 163.95,190.561 162.45,191.894 162,194.5C 162.409,187.714 163.576,181.047 165.5,174.5 Z"/></g>
<g><path style="opacity:1" fill="#879e85" d="M 79.5,174.5 C 80.5862,174.62 81.2528,175.287 81.5,176.5C 82.3333,179.833 83.1667,183.167 84,186.5C 85,182.5 86,178.5 87,174.5C 88.4548,181.444 88.7881,188.444 88,195.5C 86.7556,192.362 86.089,189.028 86,185.5C 84.3349,193.33 83.0016,192.997 82,184.5C 81.8236,187.882 81.3236,191.215 80.5,194.5C 79.5033,187.866 79.17,181.2 79.5,174.5 Z"/></g>
<g><path style="opacity:1" fill="#3c4630" d="M 104.5,177.5 C 104.647,182.214 104.314,186.881 103.5,191.5C 102.883,191.611 102.383,191.944 102,192.5C 100.901,186.812 100.734,181.145 101.5,175.5C 102.518,176.193 103.518,176.859 104.5,177.5 Z"/></g>
<g><path style="opacity:1" fill="#8a9982" d="M 62.5,174.5 C 67.5388,174.451 67.7055,175.118 63,176.5C 62.6667,181.833 62.3333,187.167 62,192.5C 60.1303,186.335 60.297,180.335 62.5,174.5 Z"/></g>
<g><path style="opacity:1" fill="#859a80" d="M 71.5,192.5 C 69.6592,187.424 69.1592,182.091 70,176.5C 72.3006,172.605 74.3006,172.938 76,177.5C 76.9032,183.281 76.5699,188.947 75,194.5C 72.8511,195.84 71.6845,195.173 71.5,192.5 Z"/></g>
<g><path style="opacity:1" fill="#8c9d84" d="M 91.5,175.5 C 92.6009,174.402 93.9343,174.235 95.5,175C 94.1667,181.333 94.1667,187.667 95.5,194C 94.5,194.667 93.5,194.667 92.5,194C 93.6491,187.687 93.3158,181.52 91.5,175.5 Z"/></g>
<g><path style="opacity:1" fill="#9eb19a" d="M 173.5,180.5 C 175.258,183.854 176.258,187.521 176.5,191.5C 174.517,188.201 173.517,184.534 173.5,180.5 Z"/></g>
<g><path style="opacity:1" fill="#b1c4ab" d="M 123.5,175.5 C 124.251,174.427 125.251,174.26 126.5,175C 125.854,178.081 125.521,181.248 125.5,184.5C 125.554,187.939 126.22,191.106 127.5,194C 126.167,194.667 124.833,194.667 123.5,194C 124.826,187.734 124.826,181.568 123.5,175.5 Z"/></g>
<g><path style="opacity:1" fill="#3d442f" d="M 71.5,192.5 C 71.1712,186.794 71.5046,181.128 72.5,175.5C 73.086,175.709 73.586,176.043 74,176.5C 76.1545,182.26 75.9878,187.926 73.5,193.5C 72.8165,193.137 72.1499,192.804 71.5,192.5 Z"/></g>
<g><path style="opacity:1" fill="#869880" d="M 104.5,177.5 C 107.078,182.31 106.745,186.977 103.5,191.5C 104.314,186.881 104.647,182.214 104.5,177.5 Z"/></g>
<g><path style="opacity:1" fill="#97ae94" d="M 184.5,174.5 C 185.725,175.152 186.392,176.319 186.5,178C 186.333,179.167 186.167,180.333 186,181.5C 185.667,180.833 185.333,180.167 185,179.5C 184.15,184.584 182.984,189.584 181.5,194.5C 181.167,194.167 180.833,193.833 180.5,193.5C 182.155,187.234 183.489,180.901 184.5,174.5 Z"/></g>
<g><path style="opacity:1" fill="#3c4a35" d="M 112.5,177.5 C 113.808,181.019 113.808,184.685 112.5,188.5C 111.921,184.904 111.921,181.238 112.5,177.5 Z"/></g>
<g><path style="opacity:1" fill="#354930" d="M 165.5,177.5 C 166.482,180.962 166.815,184.629 166.5,188.5C 165.448,188.649 164.448,188.483 163.5,188C 164.739,184.636 165.406,181.136 165.5,177.5 Z"/></g>
<g><path style="opacity:1" fill="#9ab197" d="M 142.5,174.5 C 143.222,174.918 143.722,175.584 144,176.5C 144.885,183.932 144.718,188.599 143.5,190.5C 142.167,190.5 140.833,190.5 139.5,190.5C 138.953,187.661 139.953,182.327 142.5,174.5 Z"/></g>
<g><path style="opacity:1" fill="#394630" d="M 141.5,181.5 C 143.344,183.279 144.01,185.612 143.5,188.5C 142.325,188.719 141.325,188.386 140.5,187.5C 141.348,185.591 141.682,183.591 141.5,181.5 Z"/></g>
<g><path style="opacity:1" fill="#a5bba1" d="M 173.5,180.5 C 172.674,184.982 172.174,189.649 172,194.5C 171.333,187.833 171.333,181.167 172,174.5C 173.319,176.25 173.819,178.25 173.5,180.5 Z"/></g>
<g><path style="opacity:1" fill="#c1d9bf" d="M 186.5,182.5 C 187.645,186.311 187.812,190.311 187,194.5C 186.727,192.899 186.227,191.399 185.5,190C 186.435,187.619 186.768,185.119 186.5,182.5 Z"/></g>
<g><path style="opacity:1" fill="#97af95" d="M 104.5,177.5 C 103.518,176.859 102.518,176.193 101.5,175.5C 100.734,181.145 100.901,186.812 102,192.5C 102.383,191.944 102.883,191.611 103.5,191.5C 103.213,193.121 102.213,194.121 100.5,194.5C 99.5033,187.866 99.17,181.2 99.5,174.5C 102.285,173.916 103.952,174.916 104.5,177.5 Z"/></g>
<g><path style="opacity:1" fill="#9aad95" d="M 148.5,174.5 C 149.327,179.651 149.827,184.984 150,190.5C 150.318,192.061 151.151,193.228 152.5,194C 151.207,194.49 149.873,194.657 148.5,194.5C 148.5,187.833 148.5,181.167 148.5,174.5 Z"/></g>
<g><path style="opacity:1" fill="#a2bca1" d="M 155.5,174.5 C 157.57,174.583 157.903,175.583 156.5,177.5C 157.097,183.054 157.764,188.554 158.5,194C 157.5,194.667 156.5,194.667 155.5,194C 156.281,187.574 156.281,181.074 155.5,174.5 Z"/></g>
<g><path style="opacity:1" fill="#9aaf95" d="M 176.5,191.5 C 177.328,185.681 177.828,179.681 178,173.5C 178.831,180.524 178.664,187.524 177.5,194.5C 176.614,193.675 176.281,192.675 176.5,191.5 Z"/></g>
<g><path style="opacity:1" fill="#25532a" d="M 173.5,213.5 C 173.5,211.5 173.5,209.5 173.5,207.5C 140.004,206.502 106.337,206.168 72.5,206.5C 72.5,208.833 72.5,211.167 72.5,213.5C 70.7657,211.678 69.7657,209.345 69.5,206.5C 71.192,205.031 73.192,204.365 75.5,204.5C 108.826,205.139 142.159,205.806 175.5,206.5C 174.264,208.311 174.264,210.144 175.5,212C 175.164,213.03 174.497,213.53 173.5,213.5 Z"/></g>
<g><path style="opacity:1" fill="#1e6b37" d="M 173.5,207.5 C 140.167,207.5 106.833,207.5 73.5,207.5C 73.2606,209.467 73.5939,211.301 74.5,213C 107.498,213.5 140.498,213.667 173.5,213.5C 173.5,213.833 173.5,214.167 173.5,214.5C 139.833,214.5 106.167,214.5 72.5,214.5C 72.5,214.167 72.5,213.833 72.5,213.5C 72.5,211.167 72.5,208.833 72.5,206.5C 106.337,206.168 140.004,206.502 173.5,207.5 Z"/></g>
<g><path style="opacity:1" fill="#038033" d="M 173.5,207.5 C 173.5,209.5 173.5,211.5 173.5,213.5C 140.498,213.667 107.498,213.5 74.5,213C 73.5939,211.301 73.2606,209.467 73.5,207.5C 106.833,207.5 140.167,207.5 173.5,207.5 Z"/></g>
<g><path style="opacity:1" fill="#a0b6a1" d="M 72.5,215.5 C 72.5,215.167 72.5,214.833 72.5,214.5C 106.167,214.5 139.833,214.5 173.5,214.5C 174.833,217.167 174.833,219.833 173.5,222.5C 173.5,220.167 173.5,217.833 173.5,215.5C 139.833,215.5 106.167,215.5 72.5,215.5 Z"/></g>
<g><path style="opacity:1" fill="#fefefc" d="M 72.5,215.5 C 106.167,215.5 139.833,215.5 173.5,215.5C 173.5,217.833 173.5,220.167 173.5,222.5C 139.833,222.5 106.167,222.5 72.5,222.5C 72.5,220.167 72.5,217.833 72.5,215.5 Z"/></g>
<g><path style="opacity:1" fill="#c01312" d="M 173.5,223.5 C 173.5,225.833 173.5,228.167 173.5,230.5C 139.833,230.5 106.167,230.5 72.5,230.5C 72.5,228.167 72.5,225.833 72.5,223.5C 106.167,223.5 139.833,223.5 173.5,223.5 Z"/></g>
<g><path style="opacity:1" fill="#74321b" d="M 173.5,223.5 C 175.369,225.635 176.036,228.302 175.5,231.5C 140.996,231.832 106.663,231.498 72.5,230.5C 106.167,230.5 139.833,230.5 173.5,230.5C 173.5,228.167 173.5,225.833 173.5,223.5 Z"/></g>
</svg>
