<?xml version="1.0" encoding="UTF-8"?>
<!DOCTYPE svg PUBLIC "-//W3C//DTD SVG 1.1//EN" "http://www.w3.org/Graphics/SVG/1.1/DTD/svg11.dtd">
<svg xmlns="http://www.w3.org/2000/svg" version="1.1" width="267px" height="257px" style="shape-rendering:geometricPrecision; text-rendering:geometricPrecision; image-rendering:optimizeQuality; fill-rule:evenodd; clip-rule:evenodd" xmlns:xlink="http://www.w3.org/1999/xlink">
<g><path style="opacity:0.982" fill="#b5e5c7" d="M 119.5,15.5 C 121.124,15.3601 122.29,16.0267 123,17.5C 126.05,31.8043 128.884,46.1377 131.5,60.5C 130.919,62.7236 129.586,63.557 127.5,63C 126.69,59.7975 125.69,56.6308 124.5,53.5C 122.591,52.6518 120.591,52.3184 118.5,52.5C 117.955,55.8131 117.455,59.1464 117,62.5C 115.989,63.3366 114.822,63.67 113.5,63.5C 114.358,52.8422 115.192,42.1755 116,31.5C 116.218,25.9044 117.385,20.571 119.5,15.5 Z M 120.5,27.5 C 122.087,34.5862 123.754,41.7529 125.5,49C 123.19,49.4966 120.857,49.6633 118.5,49.5C 118.947,42.1369 119.614,34.8035 120.5,27.5 Z"/></g>
<g><path style="opacity:0.959" fill="#b1dfc2" d="M 155.5,16.5 C 162.9,16.2339 166.566,19.9006 166.5,27.5C 165.371,36.6428 163.538,45.6428 161,54.5C 160.108,57.9518 158.442,60.9518 156,63.5C 155.503,66.146 155.336,68.8127 155.5,71.5C 160.288,71.9311 160.622,73.2644 156.5,75.5C 151.782,73.6755 150.116,70.3422 151.5,65.5C 146.362,62.8039 144.029,58.4705 144.5,52.5C 146.014,43.7758 147.847,35.1092 150,26.5C 151.07,22.6891 152.903,19.3557 155.5,16.5 Z M 157.5,19.5 C 159.113,19.9443 160.28,20.9443 161,22.5C 161.41,35.7801 159.244,48.6134 154.5,61C 152.251,61.8632 150.418,61.3632 149,59.5C 148.669,45.4915 151.502,32.1582 157.5,19.5 Z"/></g>
<g><path style="opacity:0.97" fill="#b1dfc2" d="M 95.5,17.5 C 97.4109,17.5743 98.5776,18.5743 99,20.5C 103.113,35.1165 107.613,49.6165 112.5,64C 112.387,65.2798 111.72,66.1131 110.5,66.5C 102.61,57.0666 95.4431,47.0666 89,36.5C 90.8917,47.4698 94.3917,57.9698 99.5,68C 98.1256,70.8991 96.6256,71.0658 95,68.5C 89.4377,54.2166 84.6044,39.7166 80.5,25C 81.0253,24.3076 81.6919,23.8076 82.5,23.5C 90.8807,32.5808 98.0474,42.5808 104,53.5C 101.475,42.2459 98.3086,31.0792 94.5,20C 94.7432,19.0979 95.0766,18.2646 95.5,17.5 Z"/></g>
<g><path style="opacity:0.969" fill="#b1e0c2" d="M 181.5,24.5 C 183.346,24.2222 184.68,24.8888 185.5,26.5C 179.409,39.0101 174.742,52.0101 171.5,65.5C 171.326,67.6934 171.993,69.5267 173.5,71C 174.996,71.5074 176.163,71.0074 177,69.5C 183.056,56.6653 188.722,43.6653 194,30.5C 196.125,29.1485 197.292,29.8152 197.5,32.5C 192.107,45.168 186.607,57.8347 181,70.5C 177.385,75.4227 173.385,75.756 169,71.5C 167.566,67.5935 167.233,63.5935 168,59.5C 171.426,47.3842 175.926,35.7176 181.5,24.5 Z"/></g>
<g><path style="opacity:0.966" fill="#b1dfc2" d="M 65.5,29.5 C 66.8221,29.33 67.9887,29.6634 69,30.5C 75.4953,42.8281 82.4953,54.8281 90,66.5C 91.4114,68.6504 92.2447,70.9837 92.5,73.5C 90.6916,73.5086 89.0249,73.0086 87.5,72C 79.6667,64.8333 71.8333,57.6667 64,50.5C 63.6848,51.9078 64.0181,53.2411 65,54.5C 69.9175,62.6701 75.0841,70.6701 80.5,78.5C 80.1131,79.7199 79.2798,80.3865 78,80.5C 68.5096,67.534 60.0096,53.8673 52.5,39.5C 53.1667,39.1667 53.8333,38.8333 54.5,38.5C 64.6752,45.1639 73.8419,53.1639 82,62.5C 76.7529,52.024 70.9195,41.6907 64.5,31.5C 64.8627,30.8165 65.1961,30.1499 65.5,29.5 Z"/></g>
<g><path style="opacity:0.972" fill="#b3e3c5" d="M 209.5,38.5 C 213.46,39.2952 215.793,41.6285 216.5,45.5C 214.278,45.822 212.444,45.1554 211,43.5C 207.705,47.9294 204.538,52.4294 201.5,57C 202.885,58.5971 203.551,60.4305 203.5,62.5C 201.401,61.7691 199.401,61.7691 197.5,62.5C 193.261,67.0126 190.095,72.0126 188,77.5C 189.512,78.2567 190.846,79.2567 192,80.5C 192.27,81.9323 191.604,82.9323 190,83.5C 186.559,82.3709 184.059,80.2043 182.5,77C 191.381,63.9743 200.381,51.141 209.5,38.5 Z"/></g>
<g><path style="opacity:0.975" fill="#b2e1c3" d="M 224.5,52.5 C 229.339,52.5578 232.005,54.8911 232.5,59.5C 229.915,59.4323 227.582,58.9323 225.5,58C 222.703,61.7988 219.536,65.2988 216,68.5C 216.661,70.0348 216.994,71.7015 217,73.5C 216.586,73.9574 216.086,74.2907 215.5,74.5C 214.38,73.1666 213.047,72.6666 211.5,73C 207.167,77.3333 202.833,81.6667 198.5,86C 200.923,87.5707 202.256,89.7374 202.5,92.5C 198.853,92.3784 196.019,90.7118 194,87.5C 193.333,86.5 193.333,85.5 194,84.5C 204.736,74.267 214.902,63.6004 224.5,52.5 Z"/></g>
<g><path style="opacity:0.967" fill="#b2e0c3" d="M 240.5,68.5 C 241.5,68.5 242.5,68.5 243.5,68.5C 243.159,71.5158 241.993,74.1825 240,76.5C 234.207,83.9614 228.041,91.1281 221.5,98C 222.167,98.6667 222.833,98.6667 223.5,98C 232.662,91.5849 241.995,85.4183 251.5,79.5C 253.49,80.4627 253.823,81.796 252.5,83.5C 240.031,91.4703 227.698,99.637 215.5,108C 213.975,109.009 212.308,109.509 210.5,109.5C 211.44,106.286 212.94,103.286 215,100.5C 220.812,93.0537 226.978,85.887 233.5,79C 224.493,83.3627 216.159,89.0294 208.5,96C 206.702,97.5053 204.868,97.6719 203,96.5C 202.333,95.8333 202.333,95.1667 203,94.5C 215.13,85.1944 227.63,76.5277 240.5,68.5 Z"/></g>
<g><path style="opacity:0.98" fill="#b3e1c4" d="M 36.5,51.5 C 40.4629,51.0889 44.1295,51.9222 47.5,54C 57.4139,61.9117 65.9139,71.0784 73,81.5C 74.5782,86.1823 73.0782,89.1823 68.5,90.5C 59.7828,87.3869 52.2828,82.3869 46,75.5C 41.6201,70.7886 37.6201,65.7886 34,60.5C 32.7795,56.7179 33.6128,53.7179 36.5,51.5 Z M 37.5,55.5 C 42.244,55.0395 46.244,56.5395 49.5,60C 57.1205,66.6141 63.6205,74.1141 69,82.5C 69.49,83.7932 69.6567,85.1266 69.5,86.5C 66.3093,85.9078 63.3093,84.7411 60.5,83C 51.2879,76.7883 43.7879,68.9549 38,59.5C 37.51,58.2068 37.3433,56.8734 37.5,55.5 Z"/></g>
<g><path style="opacity:0.975" fill="#b3e2c5" d="M 20.5,67.5 C 34.2825,76.5662 47.9491,85.8995 61.5,95.5C 63.0269,97.3304 62.5269,98.3304 60,98.5C 48.8066,95.0979 37.64,91.9312 26.5,89C 34.3245,95.0819 42.6579,100.415 51.5,105C 53.8483,106.688 54.0149,108.522 52,110.5C 38.449,102.28 25.449,93.28 13,83.5C 12.8333,83.1667 12.6667,82.8333 12.5,82.5C 14.7649,81.3526 17.0982,81.1859 19.5,82C 29.2763,85.0391 38.943,88.0391 48.5,91C 38.4387,84.3092 28.772,77.1425 19.5,69.5C 19.8627,68.8165 20.1961,68.1499 20.5,67.5 Z"/></g>
<g><path style="opacity:0.994" fill="#dc2f2a" d="M 115.5,88.5 C 110.684,88.824 105.684,88.9906 100.5,89C 92.683,94.3777 90.3496,101.711 93.5,111C 92.9444,112.011 92.2778,112.844 91.5,113.5C 90.8333,113.5 90.1667,113.5 89.5,113.5C 88.8401,111.184 88.1734,108.851 87.5,106.5C 88.9851,101.931 90.1518,97.2644 91,92.5C 92.8616,87.3984 96.5282,84.7317 102,84.5C 106.861,84.7683 111.361,86.1016 115.5,88.5 Z"/></g>
<g><path style="opacity:0.993" fill="#da312a" d="M 169.5,112.5 C 169.235,108.147 168.735,103.813 168,99.5C 162.676,94.2188 156.176,91.5522 148.5,91.5C 146.192,91.3647 144.192,92.0314 142.5,93.5C 139.737,91.2017 136.57,89.8684 133,89.5C 129.537,90.2408 126.204,91.2408 123,92.5C 120.992,92.6932 119.492,92.0265 118.5,90.5C 122.561,88.7251 126.727,87.0585 131,85.5C 135.032,86.7672 138.865,88.4339 142.5,90.5C 146.88,87.4059 151.547,86.9059 156.5,89C 161.134,91.2655 165.801,93.4322 170.5,95.5C 173.338,101.512 173.005,107.179 169.5,112.5 Z"/></g>
<g><path style="opacity:1" fill="#f48223" d="M 115.5,88.5 C 116.5,89.1667 117.5,89.8333 118.5,90.5C 119.492,92.0265 120.992,92.6932 123,92.5C 126.204,91.2408 129.537,90.2408 133,89.5C 136.57,89.8684 139.737,91.2017 142.5,93.5C 144.192,92.0314 146.192,91.3647 148.5,91.5C 156.176,91.5522 162.676,94.2188 168,99.5C 168.735,103.813 169.235,108.147 169.5,112.5C 169.5,112.833 169.5,113.167 169.5,113.5C 168.733,114.172 168.066,115.005 167.5,116C 170.756,117.116 173.422,118.949 175.5,121.5C 175.5,122.167 175.5,122.833 175.5,123.5C 175.5,124.167 175.167,124.5 174.5,124.5C 174.167,124.5 173.833,124.5 173.5,124.5C 171.723,123.4 169.723,122.566 167.5,122C 162.167,121.333 156.833,121.333 151.5,122C 156.44,122.568 161.107,123.735 165.5,125.5C 164.45,125.905 164.45,126.571 165.5,127.5C 165.043,128.298 164.376,128.631 163.5,128.5C 162.833,128.5 162.5,128.833 162.5,129.5C 161.833,129.5 161.167,129.5 160.5,129.5C 155.642,128.113 155.309,128.78 159.5,131.5C 159.167,131.5 158.833,131.5 158.5,131.5C 157.5,131.5 156.5,131.5 155.5,131.5C 154.833,130.167 154.167,130.167 153.5,131.5C 150.375,129.719 147.041,128.885 143.5,129C 147.346,130.086 150.68,131.919 153.5,134.5C 152.833,134.5 152.5,134.833 152.5,135.5C 149.328,132.722 145.661,131.222 141.5,131C 141.167,131.333 140.833,131.667 140.5,132C 144.234,133.263 147.567,135.096 150.5,137.5C 149.833,137.5 149.167,137.5 148.5,137.5C 148.167,137.5 147.833,137.5 147.5,137.5C 143.248,134.884 138.581,133.05 133.5,132C 125.547,130.777 117.547,130.277 109.5,130.5C 107.901,130.768 106.568,130.434 105.5,129.5C 108.203,129.048 110.87,128.381 113.5,127.5C 109.119,126.23 104.785,126.23 100.5,127.5C 100.158,126.662 99.4916,126.328 98.5,126.5C 102.233,125.023 106.233,124.189 110.5,124C 105.096,123.228 99.7625,123.561 94.5,125C 93.944,125.383 93.6107,125.883 93.5,126.5C 92.8333,126.5 92.1667,126.5 91.5,126.5C 91.5,126.167 91.5,125.833 91.5,125.5C 93.667,123.489 96.3337,122.322 99.5,122C 95.0411,120.906 91.3744,122.073 88.5,125.5C 86.9731,125.427 85.9731,126.094 85.5,127.5C 84.8333,127.5 84.5,127.167 84.5,126.5C 84.8333,125.167 85.1667,123.833 85.5,122.5C 87.7252,119.111 90.7252,116.611 94.5,115C 93.9056,114.536 93.2389,114.369 92.5,114.5C 92.5,113.833 92.1667,113.5 91.5,113.5C 92.2778,112.844 92.9444,112.011 93.5,111C 90.3496,101.711 92.683,94.3777 100.5,89C 105.684,88.9906 110.684,88.824 115.5,88.5 Z"/></g>
<g><path style="opacity:1" fill="#ffeaea" d="M 141.5,96.5 C 142.167,96.8333 142.833,97.1667 143.5,97.5C 143.396,100.09 144.063,102.423 145.5,104.5C 145.444,105.737 144.944,106.737 144,107.5C 143.163,105.649 142.329,103.816 141.5,102C 139.527,101.505 137.527,101.338 135.5,101.5C 135.5,100.167 135.5,98.8333 135.5,97.5C 137.265,96.5386 139.265,96.2053 141.5,96.5 Z"/></g>
<g><path style="opacity:1" fill="#f79396" d="M 141.5,95.5 C 141.5,95.8333 141.5,96.1667 141.5,96.5C 139.265,96.2053 137.265,96.5386 135.5,97.5C 134.957,97.44 134.624,97.1067 134.5,96.5C 136.743,95.5258 139.076,95.1924 141.5,95.5 Z"/></g>
<g><path style="opacity:1" fill="#ee2a2c" d="M 146.5,92.5 C 153.691,93.0322 160.191,95.3655 166,99.5C 169.559,107.728 167.726,114.228 160.5,119C 157.854,119.497 155.187,119.664 152.5,119.5C 152.211,113.432 151.378,107.432 150,101.5C 148.542,99.04 146.709,96.8734 144.5,95C 145.381,94.2917 146.047,93.4584 146.5,92.5 Z"/></g>
<g><path style="opacity:1" fill="#fdc9ca" d="M 154.5,97.5 C 155.849,96.2035 157.182,96.3702 158.5,98C 157.072,98.5791 155.738,98.4124 154.5,97.5 Z"/></g>
<g><path style="opacity:1" fill="#ee262a" d="M 141.5,95.5 C 139.076,95.1924 136.743,95.5258 134.5,96.5C 134.624,97.1067 134.957,97.44 135.5,97.5C 135.5,98.8333 135.5,100.167 135.5,101.5C 137.527,101.338 139.527,101.505 141.5,102C 142.329,103.816 143.163,105.649 144,107.5C 144.944,106.737 145.444,105.737 145.5,104.5C 144.063,102.423 143.396,100.09 143.5,97.5C 145.229,98.1175 146.729,99.1175 148,100.5C 149.575,106.761 150.241,113.094 150,119.5C 146.5,123 143,126.5 139.5,130C 131.485,129.499 123.485,128.665 115.5,127.5C 108.66,120.811 106.494,112.811 109,103.5C 112.719,101.79 115.886,99.2902 118.5,96C 123.264,94.7472 127.764,92.9138 132,90.5C 135.735,91.2822 138.902,92.9489 141.5,95.5 Z"/></g>
<g><path style="opacity:1" fill="#ee2a2b" d="M 116.5,92.5 C 117.289,92.7828 117.956,93.2828 118.5,94C 115.226,97.949 111.393,101.116 107,103.5C 106.131,105.581 105.631,107.747 105.5,110C 106.322,113.141 106.989,116.307 107.5,119.5C 96.3057,117.463 91.8057,110.796 94,99.5C 95.4394,96.3974 97.2728,93.5641 99.5,91C 105.411,90.2193 111.077,90.7193 116.5,92.5 Z"/></g>
<g><path style="opacity:1" fill="#fee8e9" d="M 116.5,92.5 C 116.582,94.2517 115.749,95.2517 114,95.5C 111.177,94.2295 108.343,94.2295 105.5,95.5C 103.87,94.5786 102.203,93.7453 100.5,93C 101.263,92.0565 102.263,91.5565 103.5,91.5C 107.787,92.3745 112.121,92.7079 116.5,92.5 Z"/></g>
<g><path style="opacity:1" fill="#fde4e5" d="M 163.5,103.5 C 162.127,103.657 160.793,103.49 159.5,103C 158.549,102.282 158.383,101.449 159,100.5C 160.878,101.053 162.378,102.053 163.5,103.5 Z"/></g>
<g><path style="opacity:1" fill="#fdcdcd" d="M 163.5,103.5 C 165.561,104.751 165.894,106.418 164.5,108.5C 163.548,106.955 163.215,105.288 163.5,103.5 Z"/></g>
<g><path style="opacity:0.946" fill="#a4c3a9" d="M 80.5,116.5 C 78.8729,118.63 77.0396,120.63 75,122.5C 74.0052,125.77 73.1719,129.103 72.5,132.5C 64.2574,135.536 57.0908,140.203 51,146.5C 48.3821,151.946 49.5488,156.446 54.5,160C 66.0932,165.982 78.4265,169.315 91.5,170C 121.41,173.06 150.41,169.393 178.5,159C 191.102,154.297 201.602,146.797 210,136.5C 211.839,129.657 209.339,125.157 202.5,123C 194.541,120.179 186.541,118.013 178.5,116.5C 189.842,116.335 200.842,118.169 211.5,122C 218.169,124.507 220.002,129.007 217,135.5C 211.081,143.421 203.914,149.921 195.5,155C 152.925,173.363 108.925,177.696 63.5,168C 55.3869,166.362 48.5536,162.529 43,156.5C 42.5926,148.82 45.7592,142.987 52.5,139C 57.1074,136.027 62.1074,134.193 67.5,133.5C 66.8752,127.544 68.3752,122.211 72,117.5C 74.6244,115.301 77.4578,114.968 80.5,116.5 Z"/></g>
<g><path style="opacity:1" fill="#f49431" d="M 89.5,113.5 C 90.1667,113.5 90.8333,113.5 91.5,113.5C 92.1667,113.5 92.5,113.833 92.5,114.5C 88.9505,115.723 85.9505,117.723 83.5,120.5C 81.2649,121.286 80.2649,122.952 80.5,125.5C 80.9828,130.347 82.3161,130.68 84.5,126.5C 84.5,127.167 84.8333,127.5 85.5,127.5C 83.5159,129.46 82.6826,131.793 83,134.5C 84.6428,131.039 86.8095,128.039 89.5,125.5C 90.1667,125.5 90.8333,125.5 91.5,125.5C 91.5,125.833 91.5,126.167 91.5,126.5C 84.2173,132.091 81.7173,139.425 84,148.5C 86.5292,152.889 90.3625,154.555 95.5,153.5C 99.7896,153.749 103.79,152.916 107.5,151C 99.6964,151.512 93.5297,148.679 89,142.5C 88.3482,139.406 88.6815,136.406 90,133.5C 91.7498,131.266 93.2498,128.932 94.5,126.5C 95.8333,126.5 97.1667,126.5 98.5,126.5C 99.4916,126.328 100.158,126.662 100.5,127.5C 100.5,127.833 100.5,128.167 100.5,128.5C 96.124,129.024 92.9574,131.357 91,135.5C 89.6494,141.844 92.1494,146.011 98.5,148C 102.611,149.745 106.611,149.745 110.5,148C 105.978,147.951 101.644,147.118 97.5,145.5C 92.4773,138.568 94.1439,133.735 102.5,131C 103.252,130.329 103.586,129.496 103.5,128.5C 104.167,128.833 104.833,129.167 105.5,129.5C 106.568,130.434 107.901,130.768 109.5,130.5C 109.5,130.833 109.5,131.167 109.5,131.5C 107.011,131.298 104.677,131.798 102.5,133C 105.364,133.193 108.03,132.693 110.5,131.5C 120.053,132.891 129.386,134.891 138.5,137.5C 137.761,137.369 137.094,137.536 136.5,138C 141.263,140.798 145.763,143.964 150,147.5C 155.047,143.176 154.547,139.843 148.5,137.5C 149.167,137.5 149.833,137.5 150.5,137.5C 151.5,137.167 152.167,136.5 152.5,135.5C 152.5,134.833 152.833,134.5 153.5,134.5C 153.5,135.167 153.833,135.5 154.5,135.5C 155.901,138.877 155.735,142.21 154,145.5C 150.135,150.854 144.968,154.354 138.5,156C 147.96,156.877 154.794,153.044 159,144.5C 159.789,142.288 159.622,140.288 158.5,138.5C 158.312,135.794 157.312,133.461 155.5,131.5C 156.5,131.5 157.5,131.5 158.5,131.5C 163.422,140.93 161.422,148.763 152.5,155C 150.5,156 148.5,157 146.5,158C 155.213,158.388 161.38,154.555 165,146.5C 165.808,142.973 165.641,139.64 164.5,136.5C 163.937,133.705 162.604,131.372 160.5,129.5C 161.167,129.5 161.833,129.5 162.5,129.5C 164.606,132.055 166.94,134.388 169.5,136.5C 169.154,137.696 168.654,137.696 168,136.5C 167.667,139.833 167.333,143.167 167,146.5C 165.471,149.278 164.138,151.945 163,154.5C 168.217,151.743 171.217,147.41 172,141.5C 172.333,143.167 172.667,144.833 173,146.5C 175.368,144.316 176.035,141.649 175,138.5C 172.182,133.839 168.349,130.505 163.5,128.5C 164.376,128.631 165.043,128.298 165.5,127.5C 164.45,126.571 164.45,125.905 165.5,125.5C 166.833,125.5 168.167,125.5 169.5,125.5C 171.428,127.474 173.761,128.974 176.5,130C 178.617,131.731 180.117,133.898 181,136.5C 181.635,134.365 181.301,132.365 180,130.5C 178.64,127.977 176.807,125.977 174.5,124.5C 175.167,124.5 175.5,124.167 175.5,123.5C 177.463,124.96 179.296,126.627 181,128.5C 180.906,124.896 179.073,122.563 175.5,121.5C 173.422,118.949 170.756,117.116 167.5,116C 168.066,115.005 168.733,114.172 169.5,113.5C 171.919,115.862 174.919,116.862 178.5,116.5C 186.541,118.013 194.541,120.179 202.5,123C 209.339,125.157 211.839,129.657 210,136.5C 201.602,146.797 191.102,154.297 178.5,159C 150.41,169.393 121.41,173.06 91.5,170C 78.4265,169.315 66.0932,165.982 54.5,160C 49.5488,156.446 48.3821,151.946 51,146.5C 57.0908,140.203 64.2574,135.536 72.5,132.5C 73.1719,129.103 74.0052,125.77 75,122.5C 77.0396,120.63 78.8729,118.63 80.5,116.5C 83.6727,115.958 86.6727,114.958 89.5,113.5 Z"/></g>
<g><path style="opacity:1" fill="#fff1d5" d="M 155.5,131.5 C 157.312,133.461 158.312,135.794 158.5,138.5C 158.688,140.103 158.188,141.437 157,142.5C 156.817,139.635 156.317,136.969 155.5,134.5C 154.833,133.5 154.167,132.5 153.5,131.5C 154.167,130.167 154.833,130.167 155.5,131.5 Z"/></g>
<g><path style="opacity:1" fill="#fee69b" d="M 168.5,129.5 C 174.025,129.645 177.691,132.645 179.5,138.5C 179.281,139.938 178.781,141.271 178,142.5C 177.256,136.327 174.089,131.993 168.5,129.5 Z"/></g>
<g><path style="opacity:1" fill="#feecd6" d="M 160.5,129.5 C 162.604,131.372 163.937,133.705 164.5,136.5C 164.649,137.552 164.483,138.552 164,139.5C 163.77,136.032 162.27,133.366 159.5,131.5C 155.309,128.78 155.642,128.113 160.5,129.5 Z"/></g>
<g><path style="opacity:1" fill="#ef3b28" d="M 153.5,131.5 C 154.167,132.5 154.833,133.5 155.5,134.5C 154.833,134.5 154.5,134.833 154.5,135.5C 153.833,135.5 153.5,135.167 153.5,134.5C 150.68,131.919 147.346,130.086 143.5,129C 147.041,128.885 150.375,129.719 153.5,131.5 Z"/></g>
<g><path style="opacity:1" fill="#fdd07e" d="M 109.5,131.5 C 109.833,131.5 110.167,131.5 110.5,131.5C 108.03,132.693 105.364,133.193 102.5,133C 104.677,131.798 107.011,131.298 109.5,131.5 Z"/></g>
<g><path style="opacity:1" fill="#fee89f" d="M 158.5,131.5 C 158.833,131.5 159.167,131.5 159.5,131.5C 162.27,133.366 163.77,136.032 164,139.5C 164.483,138.552 164.649,137.552 164.5,136.5C 165.641,139.64 165.808,142.973 165,146.5C 161.38,154.555 155.213,158.388 146.5,158C 148.5,157 150.5,156 152.5,155C 161.422,148.763 163.422,140.93 158.5,131.5 Z"/></g>
<g><path style="opacity:1" fill="#ef3729" d="M 152.5,135.5 C 152.167,136.5 151.5,137.167 150.5,137.5C 147.567,135.096 144.234,133.263 140.5,132C 140.833,131.667 141.167,131.333 141.5,131C 145.661,131.222 149.328,132.722 152.5,135.5 Z"/></g>
<g><path style="opacity:1" fill="#ee2d2a" d="M 109.5,131.5 C 109.5,131.167 109.5,130.833 109.5,130.5C 117.547,130.277 125.547,130.777 133.5,132C 138.581,133.05 143.248,134.884 147.5,137.5C 144.5,137.5 141.5,137.5 138.5,137.5C 129.386,134.891 120.053,132.891 110.5,131.5C 110.167,131.5 109.833,131.5 109.5,131.5 Z"/></g>
<g><path style="opacity:1" fill="#ffe39b" d="M 163.5,128.5 C 168.349,130.505 172.182,133.839 175,138.5C 176.035,141.649 175.368,144.316 173,146.5C 172.667,144.833 172.333,143.167 172,141.5C 171.217,147.41 168.217,151.743 163,154.5C 164.138,151.945 165.471,149.278 167,146.5C 167.333,143.167 167.667,139.833 168,136.5C 168.654,137.696 169.154,137.696 169.5,136.5C 166.94,134.388 164.606,132.055 162.5,129.5C 162.5,128.833 162.833,128.5 163.5,128.5 Z"/></g>
<g><path style="opacity:1" fill="#fdd584" d="M 88.5,125.5 C 88.8333,125.5 89.1667,125.5 89.5,125.5C 86.8095,128.039 84.6428,131.039 83,134.5C 82.6826,131.793 83.5159,129.46 85.5,127.5C 85.9731,126.094 86.9731,125.427 88.5,125.5 Z"/></g>
<g><path style="opacity:1" fill="#fee398" d="M 100.5,128.5 C 101.5,128.5 102.5,128.5 103.5,128.5C 103.586,129.496 103.252,130.329 102.5,131C 94.1439,133.735 92.4773,138.568 97.5,145.5C 101.644,147.118 105.978,147.951 110.5,148C 106.611,149.745 102.611,149.745 98.5,148C 92.1494,146.011 89.6494,141.844 91,135.5C 92.9574,131.357 96.124,129.024 100.5,128.5 Z"/></g>
<g><path style="opacity:1" fill="#ef312a" d="M 105.5,129.5 C 104.833,129.167 104.167,128.833 103.5,128.5C 102.5,128.5 101.5,128.5 100.5,128.5C 100.5,128.167 100.5,127.833 100.5,127.5C 104.785,126.23 109.119,126.23 113.5,127.5C 110.87,128.381 108.203,129.048 105.5,129.5 Z"/></g>
<g><path style="opacity:1" fill="#fee89f" d="M 91.5,126.5 C 92.1667,126.5 92.8333,126.5 93.5,126.5C 93.8333,126.5 94.1667,126.5 94.5,126.5C 93.2498,128.932 91.7498,131.266 90,133.5C 88.6815,136.406 88.3482,139.406 89,142.5C 93.5297,148.679 99.6964,151.512 107.5,151C 103.79,152.916 99.7896,153.749 95.5,153.5C 90.3625,154.555 86.5292,152.889 84,148.5C 81.7173,139.425 84.2173,132.091 91.5,126.5 Z"/></g>
<g><path style="opacity:1" fill="#fedf95" d="M 173.5,124.5 C 173.833,124.5 174.167,124.5 174.5,124.5C 176.807,125.977 178.64,127.977 180,130.5C 181.301,132.365 181.635,134.365 181,136.5C 180.117,133.898 178.617,131.731 176.5,130C 173.761,128.974 171.428,127.474 169.5,125.5C 170.833,125.167 172.167,124.833 173.5,124.5 Z"/></g>
<g><path style="opacity:1" fill="#ee2c29" d="M 98.5,126.5 C 97.1667,126.5 95.8333,126.5 94.5,126.5C 94.1667,126.5 93.8333,126.5 93.5,126.5C 93.6107,125.883 93.944,125.383 94.5,125C 99.7625,123.561 105.096,123.228 110.5,124C 106.233,124.189 102.233,125.023 98.5,126.5 Z"/></g>
<g><path style="opacity:1" fill="#fee69c" d="M 78.5,120.5 C 78.0433,124.433 78.71,128.433 80.5,132.5C 80.1012,134.197 79.6012,135.863 79,137.5C 74.5151,131.966 74.3484,126.299 78.5,120.5 Z"/></g>
<g><path style="opacity:1" fill="#fdd787" d="M 175.5,121.5 C 179.073,122.563 180.906,124.896 181,128.5C 179.296,126.627 177.463,124.96 175.5,123.5C 175.5,122.833 175.5,122.167 175.5,121.5 Z"/></g>
<g><path style="opacity:1" fill="#ef382b" d="M 91.5,125.5 C 90.8333,125.5 90.1667,125.5 89.5,125.5C 89.1667,125.5 88.8333,125.5 88.5,125.5C 91.3744,122.073 95.0411,120.906 99.5,122C 96.3337,122.322 93.667,123.489 91.5,125.5 Z"/></g>
<g><path style="opacity:1" fill="#ef3229" d="M 173.5,124.5 C 172.167,124.833 170.833,125.167 169.5,125.5C 168.167,125.5 166.833,125.5 165.5,125.5C 161.107,123.735 156.44,122.568 151.5,122C 156.833,121.333 162.167,121.333 167.5,122C 169.723,122.566 171.723,123.4 173.5,124.5 Z"/></g>
<g><path style="opacity:1" fill="#fee49a" d="M 83.5,120.5 C 83.8333,121.5 84.5,122.167 85.5,122.5C 85.1667,123.833 84.8333,125.167 84.5,126.5C 82.3161,130.68 80.9828,130.347 80.5,125.5C 80.2649,122.952 81.2649,121.286 83.5,120.5 Z"/></g>
<g><path style="opacity:1" fill="#aacfb6" d="M 111.5,161.5 C 117.581,163.412 123.914,163.912 130.5,163C 132.734,161.25 135.068,159.75 137.5,158.5C 147.342,161.758 156.676,160.591 165.5,155C 168.023,153.64 170.023,151.807 171.5,149.5C 175.664,149.857 178.831,148.19 181,144.5C 183.823,139.278 184.657,133.944 183.5,128.5C 182.523,125.011 180.523,122.177 177.5,120C 188.635,119.379 198.802,122.212 208,128.5C 208.667,131.167 208.667,133.833 208,136.5C 203.569,141.806 198.403,146.306 192.5,150C 152.906,169.612 111.573,174.278 68.5,164C 46.5473,156.612 45.8807,147.612 66.5,137C 69.0893,135.686 71.7559,135.019 74.5,135C 75.9771,137.445 77.8104,139.612 80,141.5C 80.472,146.579 82.6387,150.746 86.5,154C 94.0838,158.826 102.417,161.326 111.5,161.5 Z"/></g>
<g><path style="opacity:1" fill="#fee59b" d="M 155.5,134.5 C 156.317,136.969 156.817,139.635 157,142.5C 158.188,141.437 158.688,140.103 158.5,138.5C 159.622,140.288 159.789,142.288 159,144.5C 154.794,153.044 147.96,156.877 138.5,156C 144.968,154.354 150.135,150.854 154,145.5C 155.735,142.21 155.901,138.877 154.5,135.5C 154.5,134.833 154.833,134.5 155.5,134.5 Z"/></g>
<g><path style="opacity:1" fill="#fee69b" d="M 99.5,140.5 C 115.219,138.926 129.219,142.926 141.5,152.5C 139.926,153.631 138.259,153.798 136.5,153C 131.082,148.125 124.749,145.125 117.5,144C 111.138,143.576 104.805,143.576 98.5,144C 98.0426,143.586 97.7093,143.086 97.5,142.5C 98.2427,141.818 98.9094,141.151 99.5,140.5 Z"/></g>
<g><path style="opacity:1" fill="#fee69d" d="M 138.5,137.5 C 141.5,137.5 144.5,137.5 147.5,137.5C 147.833,137.5 148.167,137.5 148.5,137.5C 154.547,139.843 155.047,143.176 150,147.5C 145.763,143.964 141.263,140.798 136.5,138C 137.094,137.536 137.761,137.369 138.5,137.5 Z"/></g>
<g><path style="opacity:1" fill="#f0392d" d="M 117.5,135.5 C 117.917,134.876 118.584,134.543 119.5,134.5C 121.5,135 123.5,135.5 125.5,136C 124.552,136.483 123.552,136.649 122.5,136.5C 120.784,136.371 119.117,136.038 117.5,135.5 Z"/></g>
<g><path style="opacity:1" fill="#fee99f" d="M 117.5,135.5 C 119.117,136.038 120.784,136.371 122.5,136.5C 132.442,136.97 140.775,140.97 147.5,148.5C 146.833,149.833 145.833,150.833 144.5,151.5C 137.391,146.612 129.724,142.779 121.5,140C 113.121,138.585 104.787,138.085 96.5,138.5C 97.4289,136.362 99.0955,135.196 101.5,135C 106.917,134.219 112.25,134.385 117.5,135.5 Z"/></g>
<g><path style="opacity:1" fill="#ef3428" d="M 94.5,116.5 C 96.8421,116.504 98.8421,117.337 100.5,119C 95.9639,119.635 91.6306,120.635 87.5,122C 89.54,119.664 91.8733,117.831 94.5,116.5 Z"/></g>
<g><path style="opacity:1" fill="#ef372c" d="M 92.5,114.5 C 93.2389,114.369 93.9056,114.536 94.5,115C 90.7252,116.611 87.7252,119.111 85.5,122.5C 84.5,122.167 83.8333,121.5 83.5,120.5C 85.9505,117.723 88.9505,115.723 92.5,114.5 Z"/></g>
<g><path style="opacity:1" fill="#fee398" d="M 111.5,145.5 C 112.833,145.5 114.167,145.5 115.5,145.5C 114.792,153.87 110.125,158.203 101.5,158.5C 98.8896,158.353 96.5563,157.519 94.5,156C 100.86,156.529 106.36,154.696 111,150.5C 111.494,148.866 111.66,147.199 111.5,145.5 Z"/></g>
<g><path style="opacity:1" fill="#feeba2" d="M 117.5,146.5 C 118.5,146.5 119.5,146.5 120.5,146.5C 120.666,154.832 116.666,158.999 108.5,159C 114.321,156.857 117.321,152.69 117.5,146.5 Z"/></g>
<g><path style="opacity:1" fill="#f7e19b" d="M 183.5,128.5 C 184.657,133.944 183.823,139.278 181,144.5C 178.831,148.19 175.664,149.857 171.5,149.5C 179.94,145.299 183.94,138.299 183.5,128.5 Z"/></g>
<g><path style="opacity:1" fill="#fee59a" d="M 122.5,147.5 C 124.635,147.147 125.968,147.98 126.5,150C 125.387,155.113 122.387,158.113 117.5,159C 121.198,156.081 122.864,152.247 122.5,147.5 Z"/></g>
<g><path style="opacity:1" fill="#fee69b" d="M 128.5,149.5 C 133.598,152.83 133.265,155.996 127.5,159C 125.553,159.991 123.553,160.325 121.5,160C 125.704,157.762 128.037,154.262 128.5,149.5 Z"/></g>
<g><path style="opacity:1" fill="#f8e6a0" d="M 137.5,158.5 C 135.068,159.75 132.734,161.25 130.5,163C 123.914,163.912 117.581,163.412 111.5,161.5C 121.463,164.68 129.296,162.013 135,153.5C 136.12,155.03 136.954,156.697 137.5,158.5 Z"/></g>
<g><path style="opacity:0.741" fill="#9cc3a8" d="M 82.5,184.5 C 84.9115,184.137 86.4115,185.137 87,187.5C 87.6667,193.167 87.6667,198.833 87,204.5C 83.7333,206.988 81.7333,205.988 81,201.5C 80.3333,196.5 80.3333,191.5 81,186.5C 81.7172,185.956 82.2172,185.289 82.5,184.5 Z M 83.5,186.5 C 85.0252,189.75 86.0252,193.25 86.5,197C 85.7256,199.405 85.2256,201.905 85,204.5C 84.0853,203.672 83.4186,202.672 83,201.5C 82.2223,196.416 82.3889,191.416 83.5,186.5 Z"/></g>
<g><path style="opacity:0.757" fill="#a0c7ac" d="M 74.5,184.5 C 79.6205,186.105 79.2872,187.105 73.5,187.5C 73.3342,192.179 73.5008,196.845 74,201.5C 75.4396,203.046 77.2729,203.879 79.5,204C 76.3167,207.501 73.8167,207.001 72,202.5C 71.3333,197.167 71.3333,191.833 72,186.5C 72.9947,185.934 73.828,185.267 74.5,184.5 Z"/></g>
<g><path style="opacity:0.925" fill="#a3ccaf" d="M 173.5,185.5 C 174.725,186.152 175.392,187.319 175.5,189C 176.655,194.511 176.655,200.011 175.5,205.5C 174.571,204.311 174.238,202.978 174.5,201.5C 173.5,201.5 172.5,201.5 171.5,201.5C 170.952,205.787 170.286,206.12 169.5,202.5C 170.331,196.672 171.664,191.006 173.5,185.5 Z M 172.5,193.5 C 174.423,195.201 174.757,197.201 173.5,199.5C 172.534,197.604 172.201,195.604 172.5,193.5 Z"/></g>
<g><path style="opacity:0.64" fill="#98bea2" d="M 185.5,184.5 C 186.821,187.598 187.488,191.098 187.5,195C 187.167,198.5 186.833,202 186.5,205.5C 184.319,201.794 182.819,197.794 182,193.5C 181.827,197.541 181.327,201.541 180.5,205.5C 179.167,198.833 179.167,192.167 180.5,185.5C 182.681,189.206 184.181,193.206 185,197.5C 185.499,193.179 185.666,188.846 185.5,184.5 Z"/></g>
<g><path style="opacity:0.655" fill="#a2cbaf" d="M 193.5,185.5 C 194.931,185.881 195.764,186.881 196,188.5C 196.35,193.184 196.85,197.851 197.5,202.5C 197.167,203.5 196.833,204.5 196.5,205.5C 195.148,204.482 194.148,203.149 193.5,201.5C 192.148,202.518 191.148,203.851 190.5,205.5C 190.431,198.81 191.431,192.143 193.5,185.5 Z M 193.5,191.5 C 194.8,194.024 194.8,196.691 193.5,199.5C 193.051,196.956 193.051,194.29 193.5,191.5 Z"/></g>
<g><path style="opacity:0.929" fill="#a1c9ad" d="M 156.5,184.5 C 157.117,184.611 157.617,184.944 158,185.5C 158.499,191.491 158.666,197.491 158.5,203.5C 159.675,203.281 160.675,203.614 161.5,204.5C 159.711,206.202 158.045,206.369 156.5,205C 156.652,198.292 156.652,191.459 156.5,184.5 Z"/></g>
<g><path style="opacity:0.902" fill="#a5cfb2" d="M 97.5,184.5 C 98.1174,184.611 98.6174,184.944 99,185.5C 99.8311,192.524 99.6644,199.524 98.5,206.5C 97.6764,203.215 97.1764,199.882 97,196.5C 95.4421,204.285 94.1087,204.285 93,196.5C 91.7311,208.219 90.8977,207.886 90.5,195.5C 90.8333,192.167 91.1667,188.833 91.5,185.5C 93.1259,188.998 94.2926,192.665 95,196.5C 95.883,192.466 96.7163,188.466 97.5,184.5 Z"/></g>
<g><path style="opacity:0.467" fill="#9fc6aa" d="M 122.5,185.5 C 123.649,185.791 124.316,186.624 124.5,188C 125.085,193.197 125.752,198.363 126.5,203.5C 126.167,204.5 125.5,205.167 124.5,205.5C 123.571,204.311 123.238,202.978 123.5,201.5C 122.5,201.5 121.5,201.5 120.5,201.5C 120.762,202.978 120.429,204.311 119.5,205.5C 119.185,198.72 120.185,192.054 122.5,185.5 Z M 122.5,192.5 C 123.797,194.693 123.797,197.027 122.5,199.5C 121.637,197.229 121.637,194.895 122.5,192.5 Z"/></g>
<g><path style="opacity:0.455" fill="#a2cbae" d="M 110.5,184.5 C 115.014,186.176 117.014,189.509 116.5,194.5C 116.705,197.795 115.872,200.795 114,203.5C 112.89,205.037 111.39,205.703 109.5,205.5C 109.772,199.286 109.438,193.119 108.5,187C 109.056,185.989 109.722,185.156 110.5,184.5 Z M 110.5,187.5 C 113.586,188.654 114.919,190.988 114.5,194.5C 114.378,197.698 113.545,200.698 112,203.5C 111.735,198.118 111.235,192.785 110.5,187.5 Z"/></g>
<g><path style="opacity:0.639" fill="#9ac0a4" d="M 138.5,186.5 C 140.628,185.371 142.961,185.204 145.5,186C 145,186.5 144.5,187 144,187.5C 143.162,211.473 141.995,211.473 140.5,187.5C 139.817,187.137 139.15,186.804 138.5,186.5 Z"/></g>
<g><path style="opacity:0.506" fill="#a0c8ac" d="M 150.5,185.5 C 151.649,185.791 152.316,186.624 152.5,188C 153.085,193.197 153.752,198.363 154.5,203.5C 154.167,204.5 153.5,205.167 152.5,205.5C 151.571,204.311 151.238,202.978 151.5,201.5C 150.5,201.5 149.5,201.5 148.5,201.5C 148.762,202.978 148.429,204.311 147.5,205.5C 147.185,198.72 148.185,192.054 150.5,185.5 Z M 150.5,192.5 C 151.797,194.693 151.797,197.027 150.5,199.5C 149.637,197.229 149.637,194.895 150.5,192.5 Z"/></g>
<g><path style="opacity:0.847" fill="#a4ceb2" d="M 133.5,185.5 C 134.873,185.343 136.207,185.51 137.5,186C 136.359,191.75 136.193,197.584 137,203.5C 139.032,204.94 138.698,205.607 136,205.5C 135.167,205.167 134.333,204.833 133.5,204.5C 134.792,198.167 134.792,191.834 133.5,185.5 Z"/></g>
<g><path style="opacity:0.906" fill="#a5d0b3" d="M 101.5,185.5 C 103.199,185.34 104.866,185.506 106.5,186C 105.056,187.126 104.39,188.626 104.5,190.5C 105.036,195.205 105.703,199.872 106.5,204.5C 104.926,205.631 103.259,205.798 101.5,205C 103.028,203.352 103.695,201.352 103.5,199C 103.064,194.445 102.397,189.945 101.5,185.5 Z"/></g>
<g><path style="opacity:0.906" fill="#a5d0b3" d="M 162.5,185.5 C 164.199,185.34 165.866,185.506 167.5,186C 166.056,187.126 165.39,188.626 165.5,190.5C 166.036,195.205 166.703,199.872 167.5,204.5C 165.926,205.631 164.259,205.798 162.5,205C 164.028,203.352 164.695,201.352 164.5,199C 164.064,194.445 163.397,189.945 162.5,185.5 Z"/></g>
<g><path style="opacity:0.953" fill="#008036" d="M 183.5,217.5 C 183.5,219.833 183.5,222.167 183.5,224.5C 149.833,224.5 116.167,224.5 82.5,224.5C 82.5,222.167 82.5,219.833 82.5,217.5C 116.167,217.5 149.833,217.5 183.5,217.5 Z"/></g>
<g><path style="opacity:0.993" fill="#1c6633" d="M 183.5,217.5 C 184.473,219.948 184.806,222.615 184.5,225.5C 150.5,225.5 116.5,225.5 82.5,225.5C 82.5,225.167 82.5,224.833 82.5,224.5C 116.167,224.5 149.833,224.5 183.5,224.5C 183.5,222.167 183.5,219.833 183.5,217.5 Z"/></g>
<g><path style="opacity:0.996" fill="#abada4" d="M 82.5,226.5 C 82.5,226.167 82.5,225.833 82.5,225.5C 116.5,225.5 150.5,225.5 184.5,225.5C 184.806,228.385 184.473,231.052 183.5,233.5C 183.5,231.167 183.5,228.833 183.5,226.5C 149.833,226.5 116.167,226.5 82.5,226.5 Z"/></g>
<g><path style="opacity:0.995" fill="#fefffe" d="M 82.5,226.5 C 116.167,226.5 149.833,226.5 183.5,226.5C 183.5,228.833 183.5,231.167 183.5,233.5C 149.833,233.5 116.167,233.5 82.5,233.5C 82.5,231.167 82.5,228.833 82.5,226.5 Z"/></g>
<g><path style="opacity:0.982" fill="#c11918" d="M 183.5,234.5 C 183.5,236.833 183.5,239.167 183.5,241.5C 149.833,241.5 116.167,241.5 82.5,241.5C 82.5,239.167 82.5,236.833 82.5,234.5C 116.167,234.5 149.833,234.5 183.5,234.5 Z"/></g>
<g><path style="opacity:0.518" fill="#892c23" d="M 183.5,234.5 C 184.473,236.948 184.806,239.615 184.5,242.5C 150.329,242.832 116.329,242.498 82.5,241.5C 116.167,241.5 149.833,241.5 183.5,241.5C 183.5,239.167 183.5,236.833 183.5,234.5 Z"/></g>
</svg>
